<?xml version="1.0"?>
<svg xmlns="http://www.w3.org/2000/svg" xmlns:xlink="http://www.w3.org/1999/xlink" data-noselect="" viewBox="0 0 800 600" width="1600" height="1200" preserveAspectRatio="none" version="1.1" class="svg-canvas"><defs/> <g id="background" data-noselect=""><rect fill="#ffffff" width="800" height="600" data-noselect=""/> <!----></g> <g id="shape_FBpmA5Cojo" transform="translate(334.0221450165341,334.6116276547679) rotate(0,14.555797905484166,14.555797905484166) scale(1,1)" filter="" style="opacity: 1;"><g><svg xmlns="http://www.w3.org/2000/svg" xmlns:xlink="http://www.w3.org/1999/xlink" version="1.1" id="&#x56FE;&#x5C42;_1" x="0px" y="0px" viewBox="0 0 283.465 283.465" style="enable-background:new 0 0 283.465 283.465;" xml:space="preserve" width="29.111595810967515" height="29.111595810967515" class="style-removed" preserveAspectRatio="none" data-parent="shape_FBpmA5Cojo">
<g>
	<path d="M238.755,137.253c1.455-7.374,0.755-15.287-1.703-22.849c-3.11-9.567-4.341-19.798-10.532-28.219   c-0.557-0.758-1.192-1.784-1.119-2.627c0.55-6.329-4.594-9.848-7.127-14.628c-1.208-2.28-3.228-3.574-6.081-1.867   c0.132,0.778,0.085,1.547,0.39,2.133c2.982,5.73,6.099,11.39,9.021,17.15c2.037,4.015,4.987,8.007,5.527,12.263   c2.089,16.456,6.622,32.573,5.775,49.482c-0.441,8.798-3.951,16.57-5.596,24.901c-0.375-1.185-1.122-2.361-1.706-3.467   c-1.823-3.455-2.771-6.631-2.304-10.812c0.596-5.339,2.727-9.426,6.3-13.383c-1.167-1.145-2.305-2.344-3.531-3.446   c-1.841-1.654-2.079-3.49-0.496-5.337c2.231-2.603,2.317-5.451,1.113-8.215c1.186-1.168,2.096-2.064,3.385-3.335   c-3.706-1.64-6.559-3.542-7.192-7.516c-0.092-0.576-1.52-1.133-2.415-1.351c-3.122-0.759-3.584-3.859-5.223-5.874   c-1.381-1.697,0.472-2.97,1.269-4.411c0.487-0.882,0.19-2.226,0.154-3.36c-0.042-1.307-0.71-2.909-0.175-3.857   c1.247-2.212,0.399-3.816-0.665-5.583c-0.115-0.191,0.167-0.622,0.369-1.281c1.061-0.388,2.313-0.846,3.416-1.249   c-0.839-3.987-6.427-2.893-6.797-7.207c1.623,0.061,2.963,0.112,4.921,0.186c-2.107-3.813-3.755-7.069-5.689-10.145   c-0.656-1.044-2.244-1.472-3.016-2.481c-0.658-0.86-0.659-2.191-1.124-3.236c-0.867-1.953-1.282-4.247-3.767-5.052   c-2.004-0.649-4.004-1.337-6.062-2.049c3.262-2.055,6.309-3.973,9.826-6.188c-0.76-1.526-1.316-3.332-2.406-4.716   c-5.915-7.509-11.878-14.985-18.027-22.302c-1.49-1.772-3.714-2.947-5.664-4.305c-1.366-0.951-3.179-1.453-4.212-2.655   c-7.306-8.496-17.194-13.172-27.037-17.513c-4.519-1.993-10.244-2.214-15.284-1.746c-3.651,0.339-7.063,2.709-11.16,1.624   c-1.142-0.302-2.803,0.609-3.99,1.344c-9.07,5.61-17.655,11.86-23.947,20.637c-1.337,1.865-1.574,4.519-2.318,6.81   c0.469,0.26,0.939,0.521,1.408,0.781c5.005-4.813,9.693-10.025,15.113-14.313c4.398-3.479,9.48-6.278,14.606-8.616   c9.243-4.216,18.926-1.977,28.428-0.806c3.957,0.488,7.174,2.461,9.194,6.261c1.747,3.286,3.574,6.664,6.016,9.419   c-2.012,0.842-3.588,0.31-5.201-1.236c-1.338-1.281-2.867-2.363-4.204-3.645c-2.799-2.685-5.881-3.811-9.64-2.155   c-2.149,0.946-4.295,1.919-6.509,2.688c-1.495,0.519-3.19,0.493-4.649,1.078c-4.023,1.611-9.302,0.211-11.82,5.351   c-1.567-0.897-2.81-1.608-4.436-2.538c-1.185,1.207-2.272,2.412-3.465,3.5c-0.964,0.88-2.078,2.328-3.088,2.297   c-4.147-0.13-7.812,3.577-12.197,1.431c-0.503-0.246-1.541,0.374-2.226,0.773c-1.755,1.021-3.451,2.144-5.381,3.359   c0.601,7.039-0.7,11.014-8.074,7.091c-0.577,1.504-0.842,3.143-1.742,4.279c-0.921,1.162-2.464,1.829-3.756,2.728   c-0.312,1.719-0.637,3.514-1.034,5.703c-3.783-0.782-5.655,1.521-7.806,3.765c-2.325,2.426-3.511,6.272-7.584,6.374   c-1.587,3.949,0.888,8.619-2.59,11.423c-1.756,1.045-2.738-1.878-4.406-0.062c-1.093,1.19-0.497,2.123-0.148,3.027   c-0.421-0.119-0.841-0.237-1.261-0.356c-2.295,3.302-5.082,6.374-6.762,9.964c-2.224,4.751-4.424,9.793-5.119,14.916   c-1.112,8.195-0.978,16.559-1.41,25.698c-0.058-0.036,0.611,0.286,1.174,0.741c1.443,1.166,2.49,2.095,3.191,2.946   c-1.046,1.781-1.17,3.787-0.643,5.857c-1.358,0.962-2.401,1.7-3.878,2.747c0.635,0.415,1.24,0.834,1.803,1.267   c-0.493,0.904-0.873,1.856-0.923,2.779c-0.281,5.208-1.258,10.259-0.722,15.674c0.816,8.236,3.174,15.903,6.069,23.375   c-0.233-0.047-0.474-0.096-0.726-0.147c1.466,4.103,2.569,7.581,3.983,10.928c0.421,0.997,1.626,1.642,2.32,2.541   c0.179,0.414,0.358,0.827,0.536,1.241c0.151,0.806,0.098,1.721,0.31,2.526c0.542,2.067,0.582,4.398,2.905,5.592   c2.645,1.359,5.267,2.79,8.061,4.293c0.322,0.336,0.622,0.685,0.907,1.045c-0.374,0.714-0.777,1.485-1.156,2.211   c1.02,0.276,2.028,0.551,3.038,0.827c1.2,2.504,1.882,5.367,2.317,8.458c0.351,2.498,1.84,4.972,3.285,7.141   c1.312,1.97,3.391,3.408,4.921,5.256c5.527,6.676,10.823,13.548,16.472,20.118c7.736,8.997,16.918,16.39,26.707,23.038   c1.381,0.938,2.913,2.309,4.396,2.334c10.029,0.173,20.251,0.741,28.221-7.546c4.885,2.195,9.142,0.777,12.988-2.65   c3.745-3.338,7.314-6.913,11.302-9.932c12.094-9.155,20.8-21.461,30.755-32.602c1.1-1.231,2.131-2.749,2.569-4.309   c2.762-9.846,10.962-17.5,11.378-28.284c0.015-0.382,0.631-0.708,0.861-1.12c1.97-3.535,4.955-6.897,5.632-10.67   c1.112-6.199,3.375-11.898,5.291-17.779c0.884-2.713,1.872-5.818,1.372-8.473C237.44,151.77,237.266,144.8,238.755,137.253z    M221.168,193.27c-0.058,1.211-0.227,2.401-0.578,3.502c-0.071,0.223-0.157,0.443-0.234,0.665   C220.195,195.963,220.286,194.558,221.168,193.27z M192.617,46.694c-0.558-0.53-1.193-1.038-1.921-1.526   c-2.072-1.386-6.157-2.883-4.535-6.956C188.907,40.606,191.126,43.365,192.617,46.694z M55.528,98.76   c1.244,3.703,1.669,6.991,0.535,11.042c-0.479,1.712-1.117,3.25-1.887,4.679c0.05-5.566,0.23-11.123,1.038-16.609   C55.323,98.172,55.43,98.47,55.528,98.76z M54.878,155.569c0.443,1.128,0.756,2.332,1.344,3.355   c0.802,1.396-0.087,2.283-1.018,3.17C54.987,159.957,54.9,157.781,54.878,155.569z M57.958,86.655   c-0.273,1.342-0.564,2.682-0.809,4.025c-0.19,0.082-0.354,0.171-0.521,0.259C57.011,89.504,57.444,88.075,57.958,86.655z    M98.671,245.049c-6.414-5.16-13.895-9.332-15.171-18.64c-0.029-0.215-0.257-0.403-0.389-0.605   c-1.661-2.532-3.347-5.048-5.031-7.566c2.438,0.656,4.869,1.299,7.306,1.909c0.257,0.064,0.526,0.127,0.799,0.187   c0.045,0.228,0.07,0.469,0.075,0.662c0.111,4.004,2.793,5.374,6.57,6.114c0.386,2.371,0.895,4.828,1.168,7.312   c0.498,4.528,2.304,7.678,6.819,9.739c2.394,1.093,7.032,1.939,5.397,6.876c-0.037,0.113,0.835,0.44,1.168,0.78   c0.767,0.783,1.889,1.539,2.103,2.48c0.08,0.354,0.193,0.667,0.32,0.963c-0.555-0.416-1.118-0.823-1.67-1.242   C104.694,251.404,102.047,247.765,98.671,245.049z M171.916,254.289c-2.618,0.429-5.4,2.145-7.333,4.053   c-6.672,6.588-13.78,11.684-23.647,12.559c-4.04,0.358-7.755,0.759-11.088-1.491c-5.046-3.407-10.062-6.87-14.999-10.436   c2.277,1.025,4.519,2.138,6.862,2.977c1.068,0.383,2.801,0.397,3.595-0.228c2.129-1.676,3.937-1.496,5.995-0.081   c1.527,1.049,3.21,1.871,4.736,2.921c3.194,2.199,6.418,2.815,9.861,0.576c1.969-1.28,3.93-2.585,5.992-3.7   c1.392-0.753,3.069-1,4.415-1.811c3.711-2.237,9.148-1.704,10.805-7.182c1.69,0.633,3.032,1.135,4.786,1.792   c0.975-1.382,1.855-2.746,2.857-4.012c0.81-1.023,1.677-2.632,2.678-2.764c4.114-0.538,7.135-4.787,11.808-3.374   c0.339,0.102,0.832-0.171,1.304-0.513C186.007,249.384,179.914,252.979,171.916,254.289z M195.461,235.744   c-0.626-4.341,0.465-6.845,5.233-5.87c-0.541,0.545-1.085,1.086-1.614,1.642C197.813,232.848,196.527,234.24,195.461,235.744z    M209.276,221.394c-1.879,1.94-3.83,3.812-5.768,5.694c0.108-0.39,0.244-0.762,0.435-1.103c0.722-1.295,2.138-2.202,3.268-3.297   c0.031-1.746,0.064-3.571,0.103-5.795c3.86,0.163,5.337-2.41,7.099-4.971c0.357-0.519,0.667-1.081,0.96-1.656   C214.359,214.735,212.307,218.263,209.276,221.394z" fill="#C81D1D" stroke-width="0"/>
	<path d="M90.034,35.442c-6.08,0.984-6.569,5.596-7.974,9.285C85.079,42.219,88.711,40.263,90.034,35.442z" fill="#C81D1D" stroke-width="0"/>
</g>
</svg></g></g><g id="shape_sKT3tnosp3" transform="translate(297.387781794407,236.47830045523574) rotate(0,32.1623672230652,94.25007587253398) scale(1,1)" filter="" style="opacity: 1;"><g><svg xmlns="http://www.w3.org/2000/svg" xmlns:xlink="http://www.w3.org/1999/xlink" version="1.1" width="81.94233687405146" height="139.3347496206371" viewBox="0 0 100 170.04" data-parent="shape_sKT3tnosp3"><g data-width="20" transform="translate(20, 0)"><path d="M5.88-12.10L6.88-12.10L7.78-13.40Q7.78-13.40 8.07-13.15Q8.36-12.90 8.74-12.54Q9.12-12.18 9.44-11.84L9.44-11.84Q9.34-11.52 8.94-11.52L8.94-11.52L5.88-11.52L5.88-9.38Q8.02-8.44 8.56-7.38Q9.10-6.32 8.66-5.77Q8.22-5.22 7.44-5.76L7.44-5.76Q7.34-6.58 6.90-7.45Q6.46-8.32 5.88-9L5.88-9L5.88 1.06Q5.88 1.20 5.48 1.40Q5.08 1.60 4.66 1.60L4.66 1.60L4.32 1.60L4.32-7.46Q3.04-4.72 0.92-2.62L0.92-2.62L0.64-2.88Q1.90-4.68 2.73-6.92Q3.56-9.16 4.02-11.52L4.02-11.52L1-11.52L0.84-12.10L4.32-12.10L4.32-16.80L6.62-16.54Q6.58-16.32 6.42-16.18Q6.26-16.04 5.88-15.98L5.88-15.98L5.88-12.10ZM16.58-12.10L16.94-12.10L17.82-13.42Q17.82-13.42 18.11-13.16Q18.40-12.90 18.78-12.54Q19.16-12.18 19.46-11.84L19.46-11.84Q19.36-11.52 18.94-11.52L18.94-11.52L16.58-11.52L16.58-0.64Q16.58-0.02 16.41 0.45Q16.24 0.92 15.67 1.21Q15.10 1.50 13.96 1.62L13.96 1.62Q13.88 0.84 13.40 0.44L13.40 0.44Q12.90 0.02 11.30-0.20L11.30-0.20L11.30-0.50Q11.30-0.50 11.70-0.47Q12.10-0.44 12.66-0.41Q13.22-0.38 13.72-0.35Q14.22-0.32 14.40-0.32L14.40-0.32Q14.74-0.32 14.85-0.43Q14.96-0.54 14.96-0.78L14.96-0.78L14.96-11.52L9.88-11.52L9.72-12.10L14.96-12.10L14.96-16.76L17.28-16.50Q17.26-16.06 16.58-15.96L16.58-15.96L16.58-12.10ZM9.76-9.36L9.76-9.36L10-9.50Q12.38-8.26 12.98-6.95Q13.58-5.64 13.10-4.96Q12.62-4.28 11.78-4.92L11.78-4.92Q11.64-6.04 11.05-7.25Q10.46-8.46 9.76-9.36Z" transform="translate(0 83.02) " fill="rgb(0, 0, 0)" stroke="rgb(0, 0, 0)" stroke-width="0.033" data-glyph-w="20" data-glyph-h="28.740000000000002" data-glyph-ascender="23.02" data-glyph-descender="-5.72"/></g><g data-width="20" transform="translate(20, 0)"><path d="M6.46-12.52L6.46-14.14L1-14.14L0.88-14.74L6.46-14.74L6.46-16.80L8.72-16.58Q8.70-16.14 8-16.04L8-16.04L8-14.74L11.86-14.74L11.86-16.80L14.16-16.58Q14.14-16.14 13.44-16.04L13.44-16.04L13.44-14.74L16.32-14.74L17.32-15.98Q17.32-15.98 17.63-15.73Q17.94-15.48 18.35-15.13Q18.76-14.78 19.10-14.46L19.10-14.46Q19-14.14 18.58-14.14L18.58-14.14L13.44-14.14L13.44-12.98Q13.44-12.90 13.08-12.75Q12.72-12.60 12.14-12.60L12.14-12.60L11.86-12.60L11.86-14.14L8-14.14L8-12.90Q8-12.80 7.59-12.66Q7.18-12.52 6.70-12.52L6.70-12.52L6.46-12.52ZM10.16-3.40L13.22-3.40L13.90-4.08Q13.24-4.72 12.76-5.44L12.76-5.44L7.46-5.44Q6.48-4.34 5.18-3.40L5.18-3.40L8.46-3.40Q8.76-4.28 8.84-5.22L8.84-5.22L11.16-4.82Q11.06-4.38 10.44-4.36L10.44-4.36Q10.34-3.88 10.16-3.40L10.16-3.40ZM14.14-9.62L5.90-9.62L5.90-8.06L14.14-8.06L14.14-9.62ZM14.14-10.22L14.14-11.76L5.90-11.76L5.90-10.22L14.14-10.22ZM18.62-5.44L18.62-5.44L13.40-5.44Q14.50-4.52 16.12-3.89Q17.74-3.26 19.36-2.98L19.36-2.98L19.34-2.76Q18.50-2.56 18.22-1.44L18.22-1.44Q16.78-1.98 15.50-2.82L15.50-2.82Q15.28-2.68 14.88-2.64L14.88-2.64Q14.58 0.32 13.42 1.12L13.42 1.12Q12.64 1.60 11.44 1.60L11.44 1.60Q11.44 1.30 11.36 1.03Q11.28 0.76 11.08 0.60L11.08 0.60Q10.88 0.42 10.40 0.28Q9.92 0.14 9.36 0.06L9.36 0.06L9.36-0.26Q10-0.20 10.80-0.14Q11.60-0.08 11.88-0.08L11.88-0.08Q12.40-0.08 12.56-0.22L12.56-0.22Q13.06-0.66 13.36-2.84L13.36-2.84L9.92-2.84Q9.26-1.36 7.53-0.22Q5.80 0.92 2.48 1.60L2.48 1.60L2.36 1.32Q4.88 0.60 6.27-0.47Q7.66-1.54 8.24-2.84L8.24-2.84L4.92-2.84L4.82-3.14Q3.18-2.06 0.90-1.38L0.90-1.38L0.74-1.64Q3.94-3.18 5.68-5.44L5.68-5.44L1.04-5.44L0.86-6.02L6.12-6.02Q6.60-6.74 6.98-7.48L6.98-7.48L5.90-7.48L5.90-7.20Q5.90-7.14 5.70-7.03Q5.50-6.92 5.19-6.83Q4.88-6.74 4.56-6.74L4.56-6.74L4.34-6.74L4.34-13.06L6.02-12.36L13.96-12.36L14.76-13.20L16.48-11.90Q16.28-11.66 15.72-11.54L15.72-11.54L15.72-7.32Q15.70-7.24 15.49-7.13Q15.28-7.02 14.98-6.92Q14.68-6.82 14.40-6.82L14.40-6.82L14.14-6.82L14.14-7.48L9.38-7.48L9.56-7.44Q9.50-7.12 8.70-7.08L8.70-7.08Q8.34-6.54 7.94-6.02L7.94-6.02L16.34-6.02L17.32-7.18Q17.32-7.18 17.63-6.95Q17.94-6.72 18.36-6.40Q18.78-6.08 19.14-5.76L19.14-5.76Q19.04-5.44 18.62-5.44Z" transform="translate(0 103.02) " fill="rgb(0, 0, 0)" stroke="rgb(0, 0, 0)" stroke-width="0.033" data-glyph-w="20" data-glyph-h="28.740000000000002" data-glyph-ascender="23.02" data-glyph-descender="-5.72"/></g></svg></g></g><g id="shape_sb2cTnoly6" transform="translate(38.302267002228064,-709.7754172989366) rotate(0,360.14681335356545,858.5918057663113) scale(1,1)" filter="" style="opacity: 1;"><g><svg xmlns="http://www.w3.org/2000/svg" xmlns:xlink="http://www.w3.org/1999/xlink" version="1.1" width="1192.0971168437009" height="1717.1836115326225" viewBox="0 0 1454.8000000000002 2095.6" data-parent="shape_sb2cTnoly6"><g data-width="290.95" transform="translate(290.95, 0)"><path d="M50.92-93.69Q50.63-94.27 50.19-94.85Q49.75-95.43 49.75-96.01L49.75-96.01L50.04-98.92Q50.04-102.41 47.72-104.74L47.72-104.74Q47.13-104.74 47.13-105.32L47.13-105.32Q47.13-106.49 46.12-107.36Q45.10-108.23 44.81-108.82L44.81-108.82Q43.93-109.69 43.50-109.69Q43.06-109.69 42.19-108.82L42.19-108.82L41.31-107.65Q41.02-107.07 39.57-105.18Q38.11-103.29 36.08-102.41L36.08-102.41L36.08-102.12Q34.62-100.96 32.30-98.05L32.30-98.05Q27.64-91.94 27.35-91.36L27.35-91.36L24.44-85.54L23.86-83.21Q23.28-81.47 22.26-78.85Q21.24-76.23 19.49-72.74L19.49-72.74Q19.20-72.45 18.77-71.14Q18.33-69.83 16.88-69.25L16.88-69.25Q16.29-68.96 15.71-67.50Q15.13-66.05 15.42-65.46L15.42-65.46Q15.71-64.88 15.71-63.43L15.71-63.43Q15.71-61.97 15.13-61.10L15.13-61.10Q14.84-60.23 14.55-58.77Q14.26-57.32 14.26-56.44L14.26-56.44L14.55-55.86Q15.42-54.12 14.84-52.08L14.84-52.08L14.84-51.50Q14.84-49.75 16.00-48.59L16.00-48.59L20.37-44.52Q20.66-44.22 20.66-43.64Q20.66-43.06 20.95-42.48L20.95-42.48Q21.24-42.19 21.24-41.61L21.24-41.61Q21.53-41.31 22.55-40.44Q23.57-39.57 25.02-39.57L25.02-39.57Q26.19-39.57 27.64-39.86Q29.09-40.15 30.55-40.15L30.55-40.15Q31.71-40.73 32.59-40.73L32.59-40.73L33.75-40.73Q36.66-40.73 40.15-42.77L40.15-42.77Q43.35-45.10 45.97-45.68L45.97-45.68Q51.21-47.13 55.14-47.86Q59.06-48.59 61.68-49.17L61.68-49.17L63.14-49.46Q64.88-49.46 64.59-46.55L64.59-46.55L64.59-45.97L63.14-33.75L62.55-25.89L62.55-24.15Q62.55-22.69 61.97-20.22Q61.39-17.75 61.39-16.58L61.39-16.58Q61.39-11.64 59.06-6.98L59.06-6.98Q58.48-5.24 58.48-4.66L58.48-4.66Q58.48-3.78 59.06-1.45L59.06-1.45Q59.94 0.29 60.52 0.58L60.52 0.58Q62.55 1.16 63.72 4.36L63.72 4.36Q64.01 4.95 65.32 7.42Q66.63 9.89 68.96 10.77L68.96 10.77Q73.61 13.09 74.77 15.13L74.77 15.13Q75.07 15.42 76.52 16.29L76.52 16.29L77.39 17.17Q81.47 22.40 81.18 21.82L81.18 21.82Q82.05 24.15 84.52 24.44Q86.99 24.73 87.87 25.02L87.87 25.02Q88.45 25.02 88.45 24.73L88.45 24.73Q89.32 24.44 90.92 22.84Q92.52 21.24 93.69 20.95L93.69 20.95Q93.69 20.95 93.83 20.80Q93.98 20.66 93.98 20.66L93.98 20.66Q95.14 19.78 97.47 18.04Q99.80 16.29 101.83 15.42L101.83 15.42L109.98 11.35L114.93 8.73L119.29 6.11Q119.87 5.82 121.04 4.66L121.04 4.66L128.31-0.58L133.55-5.53Q137.62-9.60 137.62-9.60L137.62-9.60L146.64-17.17Q154.49-24.15 154.49-24.15L154.49-24.15Q158.57-28.22 159.44-28.80L159.44-28.80Q161.77-30.55 164.10-33.75Q166.42-36.95 167.59-38.41L167.59-38.41Q167.88-38.99 167.88-39.86Q167.88-40.73 168.17-41.31L168.17-41.31Q167.59-41.31 167.59-41.61L167.59-41.61L164.39-38.11Q153.04-29.39 153.04-29.39L153.04-29.39Q151.58-28.22 147.51-25.89L147.51-25.89L140.53-22.40L135.58-19.49Q130.93-17.75 128.60-16.58L128.60-16.58Q114.34-11.06 104.45-8.44L104.45-8.44Q102.12-7.86 100.96-7.86L100.96-7.86Q97.47-6.98 93.98-6.98L93.98-6.98Q92.52-6.40 92.52-7.56L92.52-7.56L92.81-10.77Q92.81-16.29 93.10-19.20L93.10-19.20Q93.10-19.78 93.39-20.51Q93.69-21.24 93.69-22.11L93.69-22.11L94.56-29.97Q94.56-31.42 94.85-32.30L94.85-32.30Q95.43-35.50 95.72-39.57Q96.01-43.64 96.01-45.10L96.01-45.10L96.30-51.50Q96.89-52.95 98.05-52.95L98.05-52.95L105.03-53.53L123.36-54.99Q124.82-54.99 125.11-55.86L125.11-55.86Q126.56-57.03 128.89-58.48Q131.22-59.94 132.38-61.39L132.38-61.39L133.26-61.39Q135.29-62.85 135.58-62.85L135.58-62.85L137.33-64.88L141.11-68.08Q141.98-69.83 141.40-70.70L141.40-70.70Q140.53-72.16 140.53-73.61L140.53-73.61Q140.53-75.65 142.57-77.39L142.57-77.39Q145.18-79.14 146.06-80.59L146.06-80.59Q147.22-81.47 149.55-82.05L149.55-82.05Q152.17-82.05 153.04-83.21L153.04-83.21Q153.62-84.08 155.37-85.25L155.37-85.25Q158.28-87.28 160.60-92.23L160.60-92.23Q161.48-94.27 163.51-93.98L163.51-93.98Q164.68-93.98 165.26-94.56L165.26-94.56Q165.55-94.85 164.97-96.30L164.97-96.30Q164.10-97.76 161.77-100.09L161.77-100.09Q161.19-100.67 160.31-101.98Q159.44-103.29 157.99-103.58L157.99-103.58L157.69-103.58L153.62-108.23Q153.62-108.23 153.48-108.38Q153.33-108.52 153.33-108.52L153.33-108.52L153.04-107.94Q151.00-109.40 147.80-112.74Q144.60-116.09 141.11-116.96L141.11-116.96Q139.95-117.54 139.37-116.38L139.37-116.38L139.37-115.22Q139.37-113.47 138.20-113.18L138.20-113.18Q137.62-113.18 137.62-112.02L137.62-112.02L137.04-107.65Q135.29-102.41 134.71-99.80L134.71-99.80Q133.55-96.89 133.55-95.43L133.55-95.43Q132.96-87.28 132.96-82.92L132.96-82.92Q132.67-81.47 131.22-81.47L131.22-81.47L122.20-81.76Q113.18-81.76 109.11-81.47L109.11-81.47L96.60-80.30L96.01-80.30Q95.43-80.30 95.00-80.88Q94.56-81.47 94.85-82.34L94.85-82.34L95.72-91.36L96.01-100.09L97.18-110.85L98.05-120.45L99.21-127.15Q99.80-131.80 100.38-133.55L100.38-133.55Q101.25-135.00 102.12-135.00L102.12-135.00Q105.61-135.87 109.40-135.87L109.40-135.87Q115.80-136.46 119.58-136.46L119.58-136.46L123.07-136.75Q124.24-137.04 126.85-137.62Q129.47-138.20 131.22-138.20L131.22-138.20Q137.33-138.49 149.55-138.49L149.55-138.49Q154.20-139.07 156.53-141.11L156.53-141.11Q158.57-142.57 161.77-144.31L161.77-144.31Q163.80-145.18 164.68-147.22L164.68-147.22Q165.26-147.80 165.55-148.82Q165.84-149.84 164.97-150.71L164.97-150.71Q164.97-150.71 164.97-151.00Q164.97-151.29 164.97-151.29L164.97-151.29L165.26-156.53Q165.26-157.69 166.28-158.86Q167.30-160.02 168.46-160.31L168.46-160.31Q170.79-160.60 172.24-163.51L172.24-163.51L172.24-164.68Q171.08-165.26 171.52-165.99Q171.95-166.71 172.24-167.01L172.24-167.01Q173.12-167.88 173.12-169.04Q173.12-170.21 171.95-170.50L171.95-170.50Q169.04-172.24 167.30-172.53L167.30-172.53Q160.60-174.86 146.06-177.19L146.06-177.19L134.71-178.35L126.56-178.64Q121.04-178.64 118.42-178.35L118.42-178.35L112.31-178.35Q109.98-178.06 107.36-178.21Q104.74-178.35 102.12-178.06L102.12-178.06Q100.67-178.06 100.38-179.23L100.38-179.23Q100.09-182.43 99.21-184.46L99.21-184.46Q99.21-185.92 98.34-186.79L98.34-186.79Q97.76-187.66 97.18-188.54Q96.60-189.41 96.01-190.28L96.01-190.28Q93.10-195.23 87.87-199.01L87.87-199.01Q87.58-199.59 86.99-199.45Q86.41-199.30 86.12-199.30L86.12-199.30Q84.96-199.01 84.96-197.56L84.96-197.56Q84.96-196.68 84.67-196.10L84.67-196.10Q84.38-196.39 83.94-196.39Q83.50-196.39 83.21-196.68L83.21-196.68Q81.18-194.65 80.45-191.88Q79.72-189.12 79.43-188.54L79.43-188.54L76.81-176.90Q76.81-176.61 75.94-175.73L75.94-175.73L69.83-174.86L61.68-173.41L54.12-172.24Q52.37-171.95 49.75-171.66Q47.13-171.37 45.39-170.79L45.39-170.79Q43.64-169.91 40.59-169.48Q37.53-169.04 35.79-168.46L35.79-168.46L32.30-167.30Q31.13-167.30 30.55-167.59L30.55-167.59Q29.39-168.46 27.93-168.46L27.93-168.46Q27.06-168.46 24.73-167.88L24.73-167.88Q24.15-167.59 23.42-167.30Q22.69-167.01 21.82-166.71L21.82-166.71L20.37-165.84L19.20-165.55Q18.04-165.55 17.31-164.82Q16.58-164.10 16.29-163.80L16.29-163.80L14.84-162.93Q11.93-161.77 11.06-160.31L11.06-160.31L12.22-159.44Q13.09-158.86 13.97-157.99Q14.84-157.11 14.55-155.95L14.55-155.95L14.55-155.37Q16.58-153.62 16.58-150.13L16.58-150.13Q16.88-148.97 16.00-148.09L16.00-148.09Q13.09-145.47 11.64-142.27L11.64-142.27Q11.06-139.66 12.22-137.18Q13.38-134.71 15.71-132.96L15.71-132.96Q16.58-132.09 18.18-131.07Q19.78-130.05 20.37-129.18L20.37-129.18Q22.40-126.56 22.99-126.27L22.99-126.27Q25.02-125.69 28.37-123.80Q31.71-121.91 33.46-121.33L33.46-121.33Q36.37-120.45 40.15-121.04L40.15-121.04Q40.44-121.04 41.02-121.33Q41.61-121.62 42.19-121.62L42.19-121.62Q45.97-121.62 48.30-123.65L48.30-123.65Q48.88-124.24 51.21-125.11L51.21-125.11Q52.37-125.40 54.26-125.69Q56.15-125.98 57.32-126.85L57.32-126.85Q58.77-128.60 59.35-128.60L59.35-128.60L70.99-131.22Q71.28-131.22 71.72-130.93Q72.16-130.64 72.16-130.35L72.16-130.35Q72.74-128.02 72.45-126.56L72.45-126.56L71.57-114.93L70.99-108.23L69.83-97.47Q69.25-92.81 69.25-91.07L69.25-91.07L68.08-79.43Q68.08-77.97 67.79-77.10L67.79-77.10Q67.79-76.23 66.63-75.94L66.63-75.94Q66.05-75.94 63.72-75.36L63.72-75.36Q61.39-75.07 56.74-73.90L56.74-73.90L51.79-73.03Q50.33-72.74 43.06-71.28L43.06-71.28L42.77-71.86Q43.35-73.03 43.64-74.05Q43.93-75.07 44.22-75.94L44.22-75.94Q47.72-82.92 48.59-86.70L48.59-86.70Q48.88-87.58 49.17-89.90Q49.46-92.23 50.92-93.69L50.92-93.69ZM181.55-133.55Q182.13-131.22 182.13-130.64L182.13-130.64Q182.13-128.89 182.43-128.02L182.43-128.02Q182.43-126.85 183.01-126.27L183.01-126.27L185.04-123.07Q185.63-121.91 186.21-121.62L186.21-121.62Q186.79-121.04 187.37-120.74Q187.95-120.45 188.54-120.16L188.54-120.16Q189.99-119.29 189.99-118.42L189.99-118.42L189.70-111.43L188.54-101.25L187.66-88.45Q187.08-83.79 187.08-81.76L187.08-81.76L185.63-63.43Q185.34-59.64 184.17-53.53L184.17-53.53Q184.17-52.37 183.59-48.88L183.59-48.88L182.72-42.77Q182.72-37.53 182.43-34.62L182.43-34.62L182.13-25.60L182.43-20.37L182.13-11.93L182.43-2.62Q182.43-1.75 182.43 2.47Q182.43 6.69 183.59 10.18L183.59 10.18L184.46 13.09Q185.04 14.55 185.92 14.98Q186.79 15.42 188.83 15.13L188.83 15.13Q189.70 14.84 190.28 15.42Q190.86 16.00 191.15 16.29L191.15 16.29Q193.48 19.78 195.23 21.24L195.23 21.24Q196.97 22.40 197.26 24.44L197.26 24.44Q197.26 25.02 197.56 25.31Q197.85 25.60 198.14 25.89L198.14 25.89Q199.30 24.73 199.30 24.73L199.30 24.73L199.30 24.15Q199.59 23.28 200.17 21.68Q200.76 20.08 201.77 19.06Q202.79 18.04 204.54 18.04L204.54 18.04Q204.83 18.04 205.12 17.75Q205.41 17.46 205.41 16.88L205.41 16.88Q208.03 12.51 208.03 12.51L208.03 12.51Q209.77 9.31 209.77 8.73L209.77 8.73L210.36 2.62L210.94-6.69Q211.23-8.73 211.52-9.31Q211.81-9.89 212.83-10.18Q213.85-10.47 214.43-10.47L214.43-10.47Q216.18-11.06 218.21-11.35Q220.25-11.64 221.70-11.93L221.70-11.93Q222.29-11.93 222.72-12.22Q223.16-12.51 223.74-12.51L223.74-12.51L228.69-13.09Q230.14-13.09 230.43-12.51L230.43-12.51Q231.31-11.64 232.76-12.22L232.76-12.22L244.98-18.91Q246.43-19.20 248.18-20.66L248.18-20.66L255.75-26.19Q260.69-29.68 264.47-34.62L264.47-34.62L267.96-38.70L270.29-42.48Q271.46-45.68 271.75-46.55L271.75-46.55Q272.33-48.01 273.35-49.46Q274.37-50.92 274.80-52.08Q275.24-53.24 274.66-54.99L274.66-54.99L274.95-55.86Q275.24-57.03 275.24-59.06L275.24-59.06Q275.24-64.59 271.17-69.25L271.17-69.25Q267.67-72.74 264.47-73.32L264.47-73.32L262.73-74.19Q250.51-77.97 248.18-78.56L248.18-78.56Q245.85-79.14 245.71-79.43Q245.56-79.72 246.73-81.76L246.73-81.76L252.84-91.65Q255.16-94.56 256.04-96.30L256.04-96.30L256.91-97.76L262.15-105.61Q263.02-107.65 264.91-110.42Q266.80-113.18 267.67-114.63L267.67-114.63Q269.13-117.25 270.15-119.29Q271.17-121.33 272.04-122.78L272.04-122.78L274.66-126.85Q274.95-127.44 275.38-128.60Q275.82-129.76 276.40-130.35L276.40-130.35Q277.57-132.38 277.57-134.71L277.57-134.71L277.28-138.49Q277.28-139.95 276.40-140.82L276.40-140.82Q272.91-144.60 268.84-147.22L268.84-147.22Q267.09-148.97 267.09-148.97L267.09-148.97Q265.93-150.42 264.33-150.86Q262.73-151.29 262.15-151.58L262.15-151.58Q260.98-152.17 260.11-152.31Q259.24-152.46 258.65-152.46L258.65-152.46Q257.20-152.75 255.60-153.19Q254.00-153.62 252.54-153.91L252.54-153.91Q248.18-155.37 242.65-155.66Q237.12-155.95 234.80-156.24L234.80-156.24L224.03-156.53Q220.83-156.53 216.32-155.80Q211.81-155.08 209.19-154.79L209.19-154.79L203.37-153.62Q200.17-152.46 197.85-152.17L197.85-152.17Q195.52-151.58 193.48-151.58L193.48-151.58Q193.19-151.29 192.03-151.29L192.03-151.29Q190.28-150.42 188.83-151.29L188.83-151.29L185.63-149.84Q182.43-148.97 181.55-145.77L181.55-145.77L180.39-144.02Q179.81-143.44 178.06-142.57Q176.32-141.69 176.61-139.95L176.61-139.95Q176.61-139.66 176.32-139.66L176.32-139.66Q175.73-138.49 175.88-138.20Q176.02-137.91 177.48-137.33L177.48-137.33L178.64-136.75Q179.23-136.46 179.66-136.02Q180.10-135.58 180.10-135.29L180.10-135.29Q179.81-133.55 181.55-133.55L181.55-133.55ZM216.47-107.94L216.18-114.93Q216.18-115.22 216.03-115.51Q215.88-115.80 216.18-116.09L216.18-116.09L216.18-123.94Q216.18-126.27 217.92-126.56L217.92-126.56L226.94-128.60Q228.98-129.18 228.10-126.85L228.10-126.85L224.61-121.04L220.83-114.93Q219.67-113.18 217.92-109.69L217.92-109.69L216.47-107.94ZM212.39-27.35L212.39-35.50Q212.98-45.97 212.98-50.92L212.98-50.92Q213.56-57.32 213.56-60.81L213.56-60.81Q213.85-61.97 215.01-63.14Q216.18-64.30 217.05-64.01L217.05-64.01L221.99-63.72Q223.45-63.72 223.74-64.59L223.74-64.59Q225.20-66.05 226.07-64.88L226.07-64.88Q227.52-63.43 229.27-63.72L229.27-63.72Q230.72-63.72 231.01-63.43L231.01-63.43Q232.76-62.55 233.92-64.30L233.92-64.30Q236.25-66.63 238.58-65.75L238.58-65.75L242.94-64.88Q243.23-64.88 243.38-64.30Q243.53-63.72 243.53-63.43L243.53-63.43L240.32-56.15Q238.29-52.37 234.21-48.59L234.21-48.59Q233.34-47.42 231.74-45.82Q230.14-44.22 228.98-43.06L228.98-43.06L227.52-41.31Q224.90-38.11 220.83-34.91L220.83-34.91Q219.67-34.04 218.36-32.44Q217.05-30.84 216.18-29.97L216.18-29.97Q215.30-29.09 212.39-27.35L212.39-27.35Z" transform="translate(0 1163.8) " fill="rgb(0, 0, 0)" stroke="rgb(0, 0, 0)" stroke-width="0.485" data-glyph-w="290.95" data-glyph-h="349.14" data-glyph-ascender="290.95" data-glyph-descender="-58.19"/></g></svg></g></g><g id="shape_O9eRy64sIW" transform="translate(320.29836267404977,281.1162457097058) rotate(0,31.61949924127461,68.05117294836545) scale(1,1)" filter="" style="opacity: 1;"><g><svg xmlns="http://www.w3.org/2000/svg" xmlns:xlink="http://www.w3.org/1999/xlink" version="1.1" width="93.90591805766297" height="135.368740515933" viewBox="0 0 114.6 165.2" data-parent="shape_O9eRy64sIW"><g data-width="22.9" transform="translate(22.9, 0)"><path d="M4.01-7.37Q3.98-7.42 3.95-7.47Q3.92-7.51 3.92-7.56L3.92-7.56L3.94-7.79Q3.94-8.06 3.76-8.24L3.76-8.24Q3.71-8.24 3.71-8.29L3.71-8.29Q3.71-8.38 3.63-8.45Q3.55-8.52 3.53-8.56L3.53-8.56Q3.46-8.63 3.42-8.63Q3.39-8.63 3.32-8.56L3.32-8.56L3.25-8.47Q3.23-8.43 3.11-8.28Q3.00-8.13 2.84-8.06L2.84-8.06L2.84-8.04Q2.73-7.95 2.54-7.72L2.54-7.72Q2.18-7.24 2.15-7.19L2.15-7.19L1.92-6.73L1.88-6.55Q1.83-6.41 1.75-6.21Q1.67-6.00 1.53-5.72L1.53-5.72Q1.51-5.70 1.48-5.60Q1.44-5.50 1.33-5.45L1.33-5.45Q1.28-5.43 1.24-5.31Q1.19-5.20 1.21-5.15L1.21-5.15Q1.24-5.11 1.24-4.99L1.24-4.99Q1.24-4.88 1.19-4.81L1.19-4.81Q1.17-4.74 1.15-4.63Q1.12-4.51 1.12-4.44L1.12-4.44L1.15-4.40Q1.21-4.26 1.17-4.10L1.17-4.10L1.17-4.05Q1.17-3.92 1.26-3.82L1.26-3.82L1.60-3.50Q1.63-3.48 1.63-3.44Q1.63-3.39 1.65-3.34L1.65-3.34Q1.67-3.32 1.67-3.27L1.67-3.27Q1.69-3.25 1.77-3.18Q1.85-3.11 1.97-3.11L1.97-3.11Q2.06-3.11 2.18-3.14Q2.29-3.16 2.40-3.16L2.40-3.16Q2.50-3.21 2.56-3.21L2.56-3.21L2.66-3.21Q2.89-3.21 3.16-3.37L3.16-3.37Q3.41-3.55 3.62-3.60L3.62-3.60Q4.03-3.71 4.34-3.77Q4.65-3.82 4.85-3.87L4.85-3.87L4.97-3.89Q5.11-3.89 5.08-3.66L5.08-3.66L5.08-3.62L4.97-2.66L4.92-2.04L4.92-1.90Q4.92-1.79 4.88-1.59Q4.83-1.40 4.83-1.31L4.83-1.31Q4.83-0.92 4.65-0.55L4.65-0.55Q4.60-0.41 4.60-0.37L4.60-0.37Q4.60-0.30 4.65-0.11L4.65-0.11Q4.72 0.02 4.76 0.05L4.76 0.05Q4.92 0.09 5.02 0.34L5.02 0.34Q5.04 0.39 5.14 0.58Q5.24 0.78 5.43 0.85L5.43 0.85Q5.79 1.03 5.89 1.19L5.89 1.19Q5.91 1.21 6.02 1.28L6.02 1.28L6.09 1.35Q6.41 1.76 6.39 1.72L6.39 1.72Q6.46 1.90 6.65 1.92Q6.85 1.95 6.92 1.97L6.92 1.97Q6.96 1.97 6.96 1.95L6.96 1.95Q7.03 1.92 7.16 1.80Q7.28 1.67 7.37 1.65L7.37 1.65Q7.37 1.65 7.39 1.64Q7.40 1.63 7.40 1.63L7.40 1.63Q7.49 1.56 7.67 1.42Q7.85 1.28 8.02 1.21L8.02 1.21L8.66 0.89L9.05 0.69L9.39 0.48Q9.43 0.46 9.53 0.37L9.53 0.37L10.10-0.05L10.51-0.44Q10.83-0.76 10.83-0.76L10.83-0.76L11.54-1.35Q12.16-1.90 12.16-1.90L12.16-1.90Q12.48-2.22 12.55-2.27L12.55-2.27Q12.73-2.40 12.92-2.66Q13.10-2.91 13.19-3.02L13.19-3.02Q13.21-3.07 13.21-3.14Q13.21-3.21 13.24-3.25L13.24-3.25Q13.19-3.25 13.19-3.27L13.19-3.27L12.94-3.00Q12.05-2.31 12.05-2.31L12.05-2.31Q11.93-2.22 11.61-2.04L11.61-2.04L11.06-1.76L10.67-1.53Q10.30-1.40 10.12-1.31L10.12-1.31Q9.00-0.87 8.22-0.66L8.22-0.66Q8.04-0.62 7.95-0.62L7.95-0.62Q7.67-0.55 7.40-0.55L7.40-0.55Q7.28-0.50 7.28-0.60L7.28-0.60L7.31-0.85Q7.31-1.28 7.33-1.51L7.33-1.51Q7.33-1.56 7.35-1.61Q7.37-1.67 7.37-1.74L7.37-1.74L7.44-2.36Q7.44-2.47 7.47-2.54L7.47-2.54Q7.51-2.79 7.53-3.11Q7.56-3.44 7.56-3.55L7.56-3.55L7.58-4.05Q7.63-4.17 7.72-4.17L7.72-4.17L8.27-4.21L9.71-4.33Q9.82-4.33 9.85-4.40L9.85-4.40Q9.96-4.49 10.14-4.60Q10.33-4.72 10.42-4.83L10.42-4.83L10.49-4.83Q10.65-4.95 10.67-4.95L10.67-4.95L10.81-5.11L11.11-5.36Q11.18-5.50 11.13-5.56L11.13-5.56Q11.06-5.68 11.06-5.79L11.06-5.79Q11.06-5.95 11.22-6.09L11.22-6.09Q11.43-6.23 11.50-6.34L11.50-6.34Q11.59-6.41 11.77-6.46L11.77-6.46Q11.98-6.46 12.05-6.55L12.05-6.55Q12.09-6.62 12.23-6.71L12.23-6.71Q12.46-6.87 12.64-7.26L12.64-7.26Q12.71-7.42 12.87-7.40L12.87-7.40Q12.96-7.40 13.01-7.44L13.01-7.44Q13.03-7.47 12.98-7.58L12.98-7.58Q12.92-7.69 12.73-7.88L12.73-7.88Q12.69-7.92 12.62-8.03Q12.55-8.13 12.43-8.15L12.43-8.15L12.41-8.15L12.09-8.52Q12.09-8.52 12.08-8.53Q12.07-8.54 12.07-8.54L12.07-8.54L12.05-8.50Q11.89-8.61 11.63-8.87Q11.38-9.14 11.11-9.21L11.11-9.21Q11.01-9.25 10.97-9.16L10.97-9.16L10.97-9.07Q10.97-8.93 10.88-8.91L10.88-8.91Q10.83-8.91 10.83-8.82L10.83-8.82L10.79-8.47Q10.65-8.06 10.60-7.85L10.60-7.85Q10.51-7.63 10.51-7.51L10.51-7.51Q10.47-6.87 10.47-6.53L10.47-6.53Q10.44-6.41 10.33-6.41L10.33-6.41L9.62-6.43Q8.91-6.43 8.59-6.41L8.59-6.41L7.60-6.32L7.56-6.32Q7.51-6.32 7.48-6.37Q7.44-6.41 7.47-6.48L7.47-6.48L7.53-7.19L7.56-7.88L7.65-8.72L7.72-9.48L7.81-10.01Q7.85-10.37 7.90-10.51L7.90-10.51Q7.97-10.63 8.04-10.63L8.04-10.63Q8.31-10.69 8.61-10.69L8.61-10.69Q9.11-10.74 9.41-10.74L9.41-10.74L9.69-10.76Q9.78-10.79 9.98-10.83Q10.19-10.88 10.33-10.88L10.33-10.88Q10.81-10.90 11.77-10.90L11.77-10.90Q12.14-10.95 12.32-11.11L12.32-11.11Q12.48-11.22 12.73-11.36L12.73-11.36Q12.89-11.43 12.96-11.59L12.96-11.59Q13.01-11.63 13.03-11.71Q13.05-11.79 12.98-11.86L12.98-11.86Q12.98-11.86 12.98-11.89Q12.98-11.91 12.98-11.91L12.98-11.91L13.01-12.32Q13.01-12.41 13.09-12.50Q13.17-12.60 13.26-12.62L13.26-12.62Q13.44-12.64 13.56-12.87L13.56-12.87L13.56-12.96Q13.47-13.01 13.50-13.06Q13.53-13.12 13.56-13.14L13.56-13.14Q13.63-13.21 13.63-13.30Q13.63-13.40 13.53-13.42L13.53-13.42Q13.30-13.56 13.17-13.58L13.17-13.58Q12.64-13.76 11.50-13.95L11.50-13.95L10.60-14.04L9.96-14.06Q9.53-14.06 9.32-14.04L9.32-14.04L8.84-14.04Q8.66-14.01 8.45-14.03Q8.24-14.04 8.04-14.01L8.04-14.01Q7.92-14.01 7.90-14.11L7.90-14.11Q7.88-14.36 7.81-14.52L7.81-14.52Q7.81-14.63 7.74-14.70L7.74-14.70Q7.69-14.77 7.65-14.84Q7.60-14.91 7.56-14.98L7.56-14.98Q7.33-15.37 6.92-15.66L6.92-15.66Q6.89-15.71 6.85-15.70Q6.80-15.69 6.78-15.69L6.78-15.69Q6.69-15.66 6.69-15.55L6.69-15.55Q6.69-15.48 6.66-15.43L6.66-15.43Q6.64-15.46 6.61-15.46Q6.57-15.46 6.55-15.48L6.55-15.48Q6.39-15.32 6.33-15.10Q6.27-14.88 6.25-14.84L6.25-14.84L6.05-13.92Q6.05-13.90 5.98-13.83L5.98-13.83L5.50-13.76L4.85-13.65L4.26-13.56Q4.12-13.53 3.92-13.51Q3.71-13.49 3.57-13.44L3.57-13.44Q3.44-13.37 3.19-13.34Q2.95-13.30 2.82-13.26L2.82-13.26L2.54-13.17Q2.45-13.17 2.40-13.19L2.40-13.19Q2.31-13.26 2.20-13.26L2.20-13.26Q2.13-13.26 1.95-13.21L1.95-13.21Q1.90-13.19 1.84-13.17Q1.79-13.14 1.72-13.12L1.72-13.12L1.60-13.05L1.51-13.03Q1.42-13.03 1.36-12.97Q1.31-12.92 1.28-12.89L1.28-12.89L1.17-12.82Q0.94-12.73 0.87-12.62L0.87-12.62L0.96-12.55Q1.03-12.50 1.10-12.43Q1.17-12.37 1.15-12.27L1.15-12.27L1.15-12.23Q1.31-12.09 1.31-11.82L1.31-11.82Q1.33-11.72 1.26-11.66L1.26-11.66Q1.03-11.45 0.92-11.20L0.92-11.20Q0.87-10.99 0.96-10.80Q1.05-10.60 1.24-10.47L1.24-10.47Q1.31-10.40 1.43-10.32Q1.56-10.24 1.60-10.17L1.60-10.17Q1.76-9.96 1.81-9.94L1.81-9.94Q1.97-9.89 2.23-9.74Q2.50-9.60 2.63-9.55L2.63-9.55Q2.86-9.48 3.16-9.53L3.16-9.53Q3.18-9.53 3.23-9.55Q3.27-9.57 3.32-9.57L3.32-9.57Q3.62-9.57 3.80-9.73L3.80-9.73Q3.85-9.78 4.03-9.85L4.03-9.85Q4.12-9.87 4.27-9.89Q4.42-9.92 4.51-9.98L4.51-9.98Q4.63-10.12 4.67-10.12L4.67-10.12L5.59-10.33Q5.61-10.33 5.64-10.30Q5.68-10.28 5.68-10.26L5.68-10.26Q5.72-10.08 5.70-9.96L5.70-9.96L5.63-9.05L5.59-8.52L5.50-7.67Q5.45-7.31 5.45-7.17L5.45-7.17L5.36-6.25Q5.36-6.14 5.34-6.07L5.34-6.07Q5.34-6.00 5.24-5.98L5.24-5.98Q5.20-5.98 5.02-5.93L5.02-5.93Q4.83-5.91 4.47-5.82L4.47-5.82L4.08-5.75Q3.96-5.72 3.39-5.61L3.39-5.61L3.37-5.66Q3.41-5.75 3.44-5.83Q3.46-5.91 3.48-5.98L3.48-5.98Q3.76-6.53 3.82-6.82L3.82-6.82Q3.85-6.89 3.87-7.08Q3.89-7.26 4.01-7.37L4.01-7.37ZM14.29-10.51Q14.34-10.33 14.34-10.28L14.34-10.28Q14.34-10.14 14.36-10.08L14.36-10.08Q14.36-9.98 14.40-9.94L14.40-9.94L14.56-9.69Q14.61-9.60 14.66-9.57L14.66-9.57Q14.70-9.53 14.75-9.50Q14.79-9.48 14.84-9.46L14.84-9.46Q14.95-9.39 14.95-9.32L14.95-9.32L14.93-8.77L14.84-7.97L14.77-6.96Q14.72-6.60 14.72-6.43L14.72-6.43L14.61-4.99Q14.59-4.69 14.50-4.21L14.50-4.21Q14.50-4.12 14.45-3.85L14.45-3.85L14.38-3.37Q14.38-2.95 14.36-2.73L14.36-2.73L14.34-2.02L14.36-1.60L14.34-0.94L14.36-0.21Q14.36-0.14 14.36 0.19Q14.36 0.53 14.45 0.80L14.45 0.80L14.52 1.03Q14.56 1.15 14.63 1.18Q14.70 1.21 14.86 1.19L14.86 1.19Q14.93 1.17 14.98 1.21Q15.02 1.26 15.05 1.28L15.05 1.28Q15.23 1.56 15.37 1.67L15.37 1.67Q15.50 1.76 15.53 1.92L15.53 1.92Q15.53 1.97 15.55 1.99Q15.57 2.02 15.59 2.04L15.59 2.04Q15.69 1.95 15.69 1.95L15.69 1.95L15.69 1.90Q15.71 1.83 15.76 1.71Q15.80 1.58 15.88 1.50Q15.96 1.42 16.10 1.42L16.10 1.42Q16.12 1.42 16.14 1.40Q16.17 1.37 16.17 1.33L16.17 1.33Q16.37 0.98 16.37 0.98L16.37 0.98Q16.51 0.73 16.51 0.69L16.51 0.69L16.56 0.21L16.60-0.53Q16.63-0.69 16.65-0.73Q16.67-0.78 16.75-0.80Q16.83-0.82 16.88-0.82L16.88-0.82Q17.01-0.87 17.18-0.89Q17.34-0.92 17.45-0.94L17.45-0.94Q17.50-0.94 17.53-0.96Q17.56-0.98 17.61-0.98L17.61-0.98L18.00-1.03Q18.11-1.03 18.14-0.98L18.14-0.98Q18.21-0.92 18.32-0.96L18.32-0.96L19.28-1.49Q19.40-1.51 19.53-1.63L19.53-1.63L20.13-2.06Q20.52-2.34 20.82-2.73L20.82-2.73L21.09-3.05L21.27-3.34Q21.37-3.60 21.39-3.66L21.39-3.66Q21.43-3.78 21.51-3.89Q21.59-4.01 21.63-4.10Q21.66-4.19 21.62-4.33L21.62-4.33L21.64-4.40Q21.66-4.49 21.66-4.65L21.66-4.65Q21.66-5.08 21.34-5.45L21.34-5.45Q21.07-5.72 20.82-5.77L20.82-5.77L20.68-5.84Q19.72-6.14 19.53-6.18L19.53-6.18Q19.35-6.23 19.34-6.25Q19.33-6.27 19.42-6.43L19.42-6.43L19.90-7.21Q20.08-7.44 20.15-7.58L20.15-7.58L20.22-7.69L20.63-8.31Q20.70-8.47 20.85-8.69Q21.00-8.91 21.07-9.02L21.07-9.02Q21.18-9.23 21.26-9.39Q21.34-9.55 21.41-9.66L21.41-9.66L21.62-9.98Q21.64-10.03 21.67-10.12Q21.71-10.21 21.75-10.26L21.75-10.26Q21.85-10.42 21.85-10.60L21.85-10.60L21.82-10.90Q21.82-11.01 21.75-11.08L21.75-11.08Q21.48-11.38 21.16-11.59L21.16-11.59Q21.02-11.72 21.02-11.72L21.02-11.72Q20.93-11.84 20.80-11.87Q20.68-11.91 20.63-11.93L20.63-11.93Q20.54-11.98 20.47-11.99Q20.40-12.00 20.36-12.00L20.36-12.00Q20.24-12.02 20.12-12.06Q19.99-12.09 19.88-12.11L19.88-12.11Q19.53-12.23 19.10-12.25Q18.66-12.27 18.48-12.30L18.48-12.30L17.63-12.32Q17.38-12.32 17.03-12.26Q16.67-12.21 16.47-12.18L16.47-12.18L16.01-12.09Q15.76-12.00 15.57-11.98L15.57-11.98Q15.39-11.93 15.23-11.93L15.23-11.93Q15.21-11.91 15.11-11.91L15.11-11.91Q14.98-11.84 14.86-11.91L14.86-11.91L14.61-11.79Q14.36-11.72 14.29-11.47L14.29-11.47L14.20-11.34Q14.15-11.29 14.01-11.22Q13.88-11.15 13.90-11.01L13.90-11.01Q13.90-10.99 13.88-10.99L13.88-10.99Q13.83-10.90 13.84-10.88Q13.85-10.85 13.97-10.81L13.97-10.81L14.06-10.76Q14.11-10.74 14.14-10.71Q14.18-10.67 14.18-10.65L14.18-10.65Q14.15-10.51 14.29-10.51L14.29-10.51ZM17.04-8.50L17.01-9.05Q17.01-9.07 17.00-9.09Q16.99-9.11 17.01-9.14L17.01-9.14L17.01-9.76Q17.01-9.94 17.15-9.96L17.15-9.96L17.86-10.12Q18.02-10.17 17.95-9.98L17.95-9.98L17.68-9.53L17.38-9.05Q17.29-8.91 17.15-8.63L17.15-8.63L17.04-8.50ZM16.72-2.15L16.72-2.79Q16.76-3.62 16.76-4.01L16.76-4.01Q16.81-4.51 16.81-4.79L16.81-4.79Q16.83-4.88 16.92-4.97Q17.01-5.06 17.08-5.04L17.08-5.04L17.47-5.02Q17.59-5.02 17.61-5.08L17.61-5.08Q17.72-5.20 17.79-5.11L17.79-5.11Q17.91-4.99 18.05-5.02L18.05-5.02Q18.16-5.02 18.18-4.99L18.18-4.99Q18.32-4.92 18.41-5.06L18.41-5.06Q18.59-5.24 18.78-5.18L18.78-5.18L19.12-5.11Q19.14-5.11 19.16-5.06Q19.17-5.02 19.17-4.99L19.17-4.99L18.92-4.42Q18.76-4.12 18.43-3.82L18.43-3.82Q18.37-3.73 18.24-3.61Q18.11-3.48 18.02-3.39L18.02-3.39L17.91-3.25Q17.70-3.00 17.38-2.75L17.38-2.75Q17.29-2.68 17.19-2.55Q17.08-2.43 17.01-2.36L17.01-2.36Q16.95-2.29 16.72-2.15L16.72-2.15Z" transform="translate(0 91.6) " fill="rgb(255, 255, 255)" stroke="rgb(255, 255, 255)" stroke-width="0.038" data-glyph-w="22.9" data-glyph-h="27.48" data-glyph-ascender="22.9" data-glyph-descender="-4.58"/></g></svg></g></g><g id="shape_qhbS8HTSMP" transform="translate(290.91442495528406,-103.82822458269999) rotate(0,172.64210039227942,417.7584218512892) scale(1,1)" filter="" style="opacity: 1;"><g><svg xmlns="http://www.w3.org/2000/svg" xmlns:xlink="http://www.w3.org/1999/xlink" version="1.1" width="580.4139605462814" height="835.5168437025783" viewBox="0 0 708.32 1019.6399999999999" data-parent="shape_qhbS8HTSMP"><g data-width="141.58" transform="translate(141.58, 0)"><path d="M91.60-87.50Q91.60-87.21 91.74-87.07L91.74-87.07Q92.03-87.21 92.31-87.14Q92.59-87.07 92.73-87.21L92.73-87.21Q95.14-90.33 95.85-92.59L95.85-92.59Q95.99-93.44 96.56-94.36Q97.12-95.28 97.41-95.85L97.41-95.85Q97.41-95.99 97.55-96.06Q97.69-96.13 97.83-96.13L97.83-96.13Q98.68-95.85 99.11-95.85L99.11-95.85Q99.67-95.85 100.80-96.13L100.80-96.13Q102.93-96.70 103.78-97.55L103.78-97.55Q103.92-97.83 104.27-97.97Q104.63-98.11 104.77-98.11L104.77-98.11Q106.33-98.40 106.47-98.54L106.47-98.54Q107.46-99.53 107.88-100.52L107.88-100.52Q108.17-101.94 107.88-102.22L107.88-102.22Q106.47-103.35 105.19-103.49L105.19-103.49Q104.77-103.64 103.92-103.57Q103.07-103.49 102.65-103.49L102.65-103.49L99.11-103.21Q98.40-103.21 98.40-103.78L98.40-103.78L98.54-105.34L98.82-106.47Q99.25-107.03 98.82-107.46L98.82-107.46Q97.83-108.73 96.56-109.44Q95.28-110.15 93.30-111.00L93.30-111.00Q93.16-111.14 92.73-111.14L92.73-111.14Q91.89-111.14 91.46-110.29L91.46-110.29Q91.32-110.15 91.32-109.72L91.32-109.72Q91.32-109.02 91.74-108.59L91.74-108.59L92.03-108.17L92.03-103.07Q92.03-102.93 91.89-102.79Q91.74-102.65 91.60-102.65L91.60-102.65Q90.61-102.50 88.98-102.22Q87.35-101.94 85.23-101.37L85.23-101.37L76.59-99.53Q75.46-99.25 75.46-98.26L75.46-98.26Q77.16-97.83 78.58-96.27L78.58-96.27Q79.00-95.57 79.99-95.57L79.99-95.57Q80.98-95.57 81.13-95.99L81.13-95.99Q82.12-96.84 83.11-96.27L83.11-96.27Q84.24-95.71 85.66-95.71L85.66-95.71Q86.65-95.71 88.91-95.99L88.91-95.99L91.18-96.27Q92.03-96.27 92.03-95.42L92.03-95.42Q92.17-94.72 92.31-93.66Q92.45-92.59 92.45-91.18L92.45-91.18Q92.45-90.33 92.31-89.62Q92.17-88.91 92.03-88.35L92.03-88.35L91.60-87.50ZM52.38-82.82Q52.53-83.11 52.46-83.46Q52.38-83.82 52.53-83.96L52.53-83.96Q53.23-84.38 53.16-85.02Q53.09-85.66 53.09-85.94L53.09-85.94Q53.09-88.20 53.23-89.34L53.23-89.34L53.23-90.19Q53.23-91.46 54.08-91.60L54.08-91.60L54.37-91.74Q55.50-92.88 56.35-92.88L56.35-92.88Q56.77-92.88 57.41-92.81Q58.05-92.73 58.90-92.88L58.90-92.88Q60.17-92.88 60.60-93.30L60.60-93.30Q61.59-93.87 63.14-95.42L63.14-95.42Q63.43-95.71 63.71-96.84L63.71-96.84Q63.71-96.98 63.57-97.19Q63.43-97.41 63.29-97.41L63.29-97.41Q62.86-97.55 62.08-97.76Q61.30-97.97 60.74-97.97L60.74-97.97L54.51-97.41Q54.08-97.41 53.87-97.83Q53.66-98.26 53.80-98.68L53.80-98.68L54.23-98.96Q55.64-99.67 54.65-100.95L54.65-100.95L51.68-104.49L51.39-104.63Q50.69-104.91 49.27-105.76L49.27-105.76L48.42-106.19L47.85-106.19Q46.30-106.19 46.30-104.63L46.30-104.63Q46.30-103.49 46.44-102.93L46.44-102.93Q46.72-101.23 46.72-100.24L46.72-100.24Q46.72-99.11 46.44-96.84L46.44-96.84Q46.44-96.13 45.73-96.13L45.73-96.13Q45.31-95.99 44.67-95.85Q44.03-95.71 43.18-95.71L43.18-95.71Q38.09-95.14 36.39-95.00L36.39-95.00Q35.96-95.00 35.18-94.93Q34.40-94.86 33.84-94.43L33.84-94.43Q34.40-92.88 35.11-92.59L35.11-92.59Q35.54-92.31 35.75-91.46Q35.96-90.61 36.39-90.33L36.39-90.33Q36.24-90.19 36.24-89.76L36.24-89.76Q36.24-89.34 36.60-88.91Q36.95-88.49 37.09-88.20L37.09-88.20Q37.52-87.07 39.08-87.07L39.08-87.07Q39.93-87.21 40.63-88.20L40.63-88.20Q41.06-89.05 41.62-89.05L41.62-89.05Q42.05-89.05 42.90-88.63L42.90-88.63Q43.18-88.06 43.75-88.06L43.75-88.06Q44.03-88.06 45.23-88.20Q46.44-88.35 47.43-89.34L47.43-89.34L48.14-87.50Q48.70-86.08 49.13-85.02Q49.55-83.96 49.98-83.11L49.98-83.11Q50.26-81.97 49.41-81.97L49.41-81.97Q43.75-81.13 41.34-80.84L41.34-80.84Q40.63-80.84 40.21-81.27L40.21-81.27Q39.78-81.69 39.36-81.76Q38.93-81.83 38.37-81.69L38.37-81.69Q38.09-81.69 37.24-81.41L37.24-81.41L35.82-81.41L35.96-80.84Q35.96-80.28 35.11-79.99L35.11-79.99Q34.40-79.85 34.26-79.43Q34.12-79.00 34.69-78.58L34.69-78.58Q35.11-78.15 35.11-77.73L35.11-77.73Q35.11-77.16 34.40-76.74L34.40-76.74Q34.26-76.74 33.98-76.45L33.98-76.45Q33.55-76.03 33.41-75.32Q33.27-74.61 33.27-74.47L33.27-74.47Q33.27-73.48 33.98-73.06L33.98-73.06L34.40-72.35L34.40-70.37Q34.40-69.37 34.55-67.39Q34.69-65.41 34.83-64.14L34.83-64.14Q34.83-63.57 35.11-61.37Q35.40-59.18 35.89-57.34Q36.39-55.50 37.09-54.08L37.09-54.08Q37.24-53.80 37.80-52.95L37.80-52.95Q37.80-53.23 37.87-53.80Q37.94-54.37 38.65-54.51L38.65-54.51Q38.51-54.37 38.51-54.08L38.51-54.08L38.51-53.52Q38.51-52.67 38.09-52.24L38.09-52.24L38.37-51.82Q38.51-51.54 38.93-51.11Q39.36-50.69 39.50-50.26L39.50-50.26Q40.49-48.85 42.19-48.85L42.19-48.85Q43.32-48.85 44.46-49.55L44.46-49.55Q44.88-50.12 45.87-50.40L45.87-50.40Q48.70-51.39 53.23-51.39L53.23-51.39L55.64-51.25Q56.21-51.39 57.13-51.54Q58.05-51.68 59.18-52.10L59.18-52.10Q62.15-52.81 64.14-52.53L64.14-52.53Q65.13-52.38 67.39-52.38L67.39-52.38Q67.68-52.38 68.10-52.31Q68.52-52.24 69.09-52.38L69.09-52.38L72.35-52.81L73.34-52.95Q75.60-53.52 76.45-53.52L76.45-53.52Q77.59-53.66 79.14-53.59Q80.70-53.52 81.41-53.52L81.41-53.52L82.54-53.52L82.54-51.39Q82.54-51.11 82.82-50.54Q83.11-49.98 82.97-49.41L82.97-49.41Q69.66-48.00 62.86-47.15L62.86-47.15L63.00-48.28Q63.00-50.40 61.30-51.82L61.30-51.82Q60.60-51.54 60.17-50.69Q59.75-49.84 59.61-49.55L59.61-49.55Q59.18-48.85 58.97-48.28Q58.76-47.71 58.47-47.15L58.47-47.15Q58.33-47.00 58.12-46.86Q57.91-46.72 57.62-46.72L57.62-46.72L53.38-46.01Q45.16-44.60 41.20-44.03L41.20-44.03Q40.07-43.75 39.50-43.75L39.50-43.75Q38.23-43.75 37.52-44.88L37.52-44.88Q36.95-44.60 36.67-44.60L36.67-44.60Q36.10-44.60 35.68-44.03L35.68-44.03Q35.25-43.18 34.26-42.47L34.26-42.47Q33.27-41.91 32.85-41.06L32.85-41.06Q32.56-40.49 32.56-40.21L32.56-40.21Q32.56-39.64 33.55-39.50L33.55-39.50Q34.26-39.36 34.83-38.51L34.83-38.51Q35.11-38.23 35.25-37.80Q35.40-37.38 35.54-37.09L35.54-37.09Q36.10-35.68 36.95-35.68L36.95-35.68Q38.37-35.68 40.63-36.53L40.63-36.53L43.47-37.38L45.16-37.66Q47.57-38.37 52.10-39.22L52.10-39.22Q53.23-39.22 54.51-39.64L54.51-39.64Q53.52-37.80 53.23-37.09L53.23-37.09Q52.10-34.83 50.26-32.21Q48.42-29.59 48.00-28.88L48.00-28.88Q47.71-28.46 44.88-24.35L44.88-24.35Q41.48-19.11 39.08-15.86L39.08-15.86Q37.66-13.73 36.39-11.33L36.39-11.33Q34.12-7.93 31.15-1.27L31.15-1.27Q30.86-0.71 31.15-0.42L31.15-0.42Q31.57 0.71 31.43 1.42L31.43 1.42Q31.43 1.70 31.57 1.91Q31.71 2.12 31.86 2.12L31.86 2.12Q32.70 1.84 32.99 1.56L32.99 1.56Q33.13 1.42 33.77 0.85Q34.40 0.28 35.54 0.42L35.54 0.42Q35.54 0.42 35.68 0.42L35.68 0.42Q37.09-1.27 37.66-2.27L37.66-2.27L40.63-7.65L44.46-14.44Q45.16-15.86 47.43-19.25L47.43-19.25Q48.56-21.38 50.83-24.63L50.83-24.63Q53.09-27.89 54.51-30.58L54.51-30.58L56.63-34.40Q58.47-38.09 58.90-38.79L58.90-38.79Q59.18-39.22 59.46-39.50Q59.75-39.78 60.17-39.78L60.17-39.78Q60.74-39.78 61.23-39.64Q61.73-39.50 62.30-39.50L62.30-39.50Q65.55-39.50 67.39-39.64L67.39-39.64Q67.68-39.64 68.45-39.57Q69.23-39.50 69.66-39.78L69.66-39.78Q71.50-40.49 72.91-40.63L72.91-40.63L75.32-40.63Q75.60-40.78 76.03-40.70Q76.45-40.63 76.74-40.78L76.74-40.78Q77.02-40.92 77.73-40.92L77.73-40.92Q78.29-40.92 79.00-40.78Q79.71-40.63 80.42-40.63L80.42-40.63L83.53-40.49Q84.66-40.49 85.23-40.63L85.23-40.63Q85.51-40.92 85.80-40.21L85.80-40.21Q87.92-35.96 88.35-35.25L88.35-35.25Q92.31-28.03 93.30-26.48L93.30-26.48Q95.42-23.64 99.25-19.82L99.25-19.82Q101.09-17.56 103.21-15.86L103.21-15.86Q103.78-15.43 106.19-13.66Q108.59-11.89 111.14-10.90L111.14-10.90Q112.41-10.19 113.83-10.62L113.83-10.62Q114.40-10.76 114.82-10.69Q115.25-10.62 115.67-10.62L115.67-10.62Q115.95-10.76 116.24-10.76Q116.52-10.76 116.66-10.90L116.66-10.90Q117.09-11.89 118.01-12.53Q118.93-13.17 119.21-13.45L119.21-13.45Q119.21-13.59 119.35-13.87Q119.49-14.16 119.78-14.58L119.78-14.58Q120.34-15.43 120.06-16.28L120.06-16.28Q119.92-16.71 120.20-17.27L120.20-17.27Q120.77-17.84 119.92-18.69L119.92-18.69Q119.49-19.11 119.35-19.82L119.35-19.82Q118.79-21.10 117.94-21.10L117.94-21.10L117.51-21.52L117.23-22.23Q114.11-24.63 113.55-25.20L113.55-25.20Q111.42-26.90 108.73-29.73L108.73-29.73L102.93-36.24L99.11-41.34L99.11-41.91Q100.38-41.91 100.95-42.19L100.95-42.19Q102.22-42.62 103.35-42.62L103.35-42.62Q103.92-42.76 104.91-42.76L104.91-42.76Q105.62-42.90 106.54-43.18Q107.46-43.47 108.17-43.61L108.17-43.61Q111.00-43.89 113.26-45.45L113.26-45.45Q113.97-46.01 114.82-46.16L114.82-46.16Q115.81-46.30 115.53-47.29L115.53-47.29L115.39-48.00Q115.39-48.99 116.38-49.69L116.38-49.69Q116.52-49.84 116.52-50.40L116.52-50.40Q116.24-50.83 115.10-51.54L115.10-51.54L114.40-52.10Q113.69-52.67 112.84-52.81L112.84-52.81Q111.57-52.81 110.86-52.67L110.86-52.67L102.93-51.68L92.17-50.54Q91.60-50.26 91.32-50.69L91.32-50.69Q90.89-50.97 90.33-51.46Q89.76-51.96 88.91-52.38L88.91-52.38Q87.50-53.66 85.94-53.80L85.94-53.80Q85.66-53.94 85.09-53.94L85.09-53.94L84.95-54.23Q85.37-54.23 86.22-54.58Q87.07-54.93 87.64-54.65L87.64-54.65Q88.06-54.65 88.35-54.79L88.35-54.79Q88.77-54.79 89.48-54.93Q90.19-55.07 90.61-55.22L90.61-55.22Q90.75-55.22 91.32-55.36Q91.89-55.50 92.31-55.78L92.31-55.78Q93.58-57.06 95.00-57.20L95.00-57.20Q95.71-57.20 96.42-57.91L96.42-57.91Q96.84-58.33 97.62-59.04Q98.40-59.75 98.82-60.31L98.82-60.31Q99.67-62.86 99.81-63.14L99.81-63.14Q99.81-63.29 99.67-63.50Q99.53-63.71 99.53-63.99L99.53-63.99Q99.39-64.14 99.32-64.28Q99.25-64.42 99.39-64.42L99.39-64.42Q99.67-64.84 100.03-65.41Q100.38-65.98 100.80-66.68L100.80-66.68Q101.09-66.97 101.58-67.39Q102.08-67.82 102.22-68.24L102.22-68.24Q103.21-70.79 103.35-72.91L103.35-72.91Q103.35-75.18 102.93-77.02L102.93-77.02Q102.65-78.86 102.08-80.28L102.08-80.28Q101.23-81.83 100.10-82.40L100.10-82.40Q97.69-83.53 95.42-83.96L95.42-83.96Q93.30-84.52 89.34-85.09L89.34-85.09Q88.35-85.23 87.57-85.16Q86.79-85.09 86.22-85.09L86.22-85.09Q84.38-85.23 80.70-85.23L80.70-85.23Q75.32-85.23 65.13-84.38L65.13-84.38Q61.59-84.10 58.19-83.53L58.19-83.53L54.79-83.11Q53.09-82.82 52.38-82.82L52.38-82.82ZM45.02-68.24L44.74-69.37Q44.74-70.08 46.01-70.22L46.01-70.22Q49.13-70.51 50.40-71.50L50.40-71.50Q50.54-71.50 50.69-71.57Q50.83-71.64 50.97-71.50L50.97-71.50L51.96-71.36Q52.81-71.36 53.38-71.78L53.38-71.78Q53.52-71.78 54.01-71.64Q54.51-71.50 54.79-71.64L54.79-71.64Q55.50-71.64 57.20-71.92L57.20-71.92L59.89-72.49Q60.17-73.20 61.16-73.20L61.16-73.20L63.85-73.20Q64.56-73.20 65.34-73.34Q66.12-73.48 66.97-73.48L66.97-73.48Q67.39-73.62 68.52-73.62L68.52-73.62L71.50-73.48Q71.92-73.48 72.28-73.62Q72.63-73.76 72.91-73.90L72.91-73.90Q74.05-74.47 75.46-74.47L75.46-74.47Q76.17-74.47 77.87-74.19L77.87-74.19L78.29-74.19Q79.00-74.19 79.71-74.33Q80.42-74.47 81.13-74.47L81.13-74.47Q81.69-74.47 82.47-74.54Q83.25-74.61 84.24-74.47L84.24-74.47Q86.22-73.76 89.34-74.05L89.34-74.05Q89.90-74.05 90.04-74.19L90.04-74.19Q90.89-74.47 91.04-74.47L91.04-74.47Q91.46-74.47 91.89-73.48L91.89-73.48L92.59-72.49L92.03-72.35Q91.60-72.49 90.61-72.49L90.61-72.49Q89.62-72.49 88.70-72.28Q87.78-72.06 86.79-72.06L86.79-72.06Q85.51-72.06 84.10-71.92Q82.68-71.78 81.27-71.78L81.27-71.78L74.33-70.93Q72.35-70.65 70.79-70.37Q69.23-70.08 67.82-69.94L67.82-69.94L60.45-68.81L51.25-67.68L50.83-67.68L49.84-67.53Q48.56-67.53 47.43-68.67L47.43-68.67Q47.29-69.09 46.72-69.09L46.72-69.09Q46.16-69.09 45.59-68.52L45.59-68.52L45.02-68.24ZM43.75-55.92Q44.74-56.92 44.81-58.26Q44.88-59.61 44.88-60.03L44.88-60.03L45.31-60.03Q45.87-59.61 46.58-59.61L46.58-59.61Q47.57-59.61 48.70-60.74L48.70-60.74Q49.41-61.59 50.40-61.66Q51.39-61.73 51.68-61.73L51.68-61.73Q53.52-62.01 56.63-62.30L56.63-62.30Q57.06-62.30 58.40-62.51Q59.75-62.72 61.02-62.44L61.02-62.44L61.59-62.44Q62.15-62.44 63.85-62.72L63.85-62.72Q64.56-62.86 65.27-63.14Q65.98-63.43 66.54-63.57L66.54-63.57Q69.66-64.56 71.78-64.28L71.78-64.28Q72.21-64.14 73.20-64.14L73.20-64.14Q74.47-64.14 75.32-64.28Q76.17-64.42 76.74-64.56L76.74-64.56Q77.73-64.70 78.36-64.99Q79.00-65.27 79.57-65.41L79.57-65.41L80.13-65.41Q80.70-65.27 81.83-65.27L81.83-65.27Q82.82-65.27 84.38-65.48Q85.94-65.69 86.93-65.83L86.93-65.83Q87.92-65.98 89.27-66.33Q90.61-66.68 91.60-66.83L91.60-66.83Q92.03-66.97 93.58-67.53L93.58-67.53Q93.73-67.68 94.01-67.68L94.01-67.68Q94.72-67.68 94.72-67.53L94.72-67.53Q95.00-66.97 94.72-66.68L94.72-66.68Q91.74-63.00 86.36-61.87L86.36-61.87Q79.71-60.60 77.16-60.31L77.16-60.31Q68.38-59.18 61.73-58.05L61.73-58.05Q58.90-57.76 54.08-56.92L54.08-56.92Q48.42-56.07 44.88-55.78L44.88-55.78Q44.60-55.64 43.75-55.92L43.75-55.92ZM32.99 20.39Q35.68 19.68 36.53 19.40L36.53 19.40L40.21 18.69L40.92 18.69Q41.91 18.69 42.19 19.40L42.19 19.40Q42.19 19.68 42.62 19.68L42.62 19.68Q43.04 19.54 43.68 19.25Q44.31 18.97 44.74 18.97L44.74 18.97Q46.01 18.97 46.44 19.25L46.44 19.25Q47.57 20.10 46.44 20.53L46.44 20.53L46.30 20.95L47.15 20.95L47.71 20.95L48.00 20.95Q49.13 20.95 49.55 21.94L49.55 21.94Q49.69 22.51 50.26 22.94Q50.83 23.36 51.25 23.36L51.25 23.36Q52.81 23.36 53.66 21.24L53.66 21.24Q53.80 20.81 54.15 20.18Q54.51 19.54 54.65 19.11L54.65 19.11Q56.21 17.56 56.92 16.56L56.92 16.56Q57.48 16.00 58.33 15.08Q59.18 14.16 60.17 12.88L60.17 12.88L62.44 9.91L64.28 7.22Q67.82 2.27 68.67 0.85L68.67 0.85Q69.52 0 70.37-1.49Q71.21-2.97 71.64-3.68L71.64-3.68Q73.06-7.22 74.61-9.77L74.61-9.77Q76.31-13.45 77.02-15.29L77.02-15.29Q77.30-15.72 77.52-16.21Q77.73-16.71 78.15-17.27L78.15-17.27Q78.44-17.84 78.79-17.84Q79.14-17.84 79.43-17.56L79.43-17.56Q80.84-15.15 81.13-11.18L81.13-11.18L80.42-12.03L79.99-10.62Q79.99-10.34 79.85-9.70Q79.71-9.06 79.85-8.78L79.85-8.78Q80.98-4.53 80.70-1.98L80.70-1.98L80.84-1.70Q80.84-1.42 81.27 1.13L81.27 1.13Q81.27 1.84 82.26 1.70L82.26 1.70Q83.11 1.27 83.11 2.27L83.11 2.27Q83.11 2.97 83.39 3.54L83.39 3.54Q83.67 3.40 85.37 2.41L85.37 2.41L85.37 3.40Q85.37 5.10 86.79 5.24L86.79 5.24L87.07 5.24Q87.78 5.24 88.20 4.81Q88.63 4.39 89.05 3.54L89.05 3.54Q89.34 3.11 90.19 3.11L90.19 3.11Q91.18 3.11 91.60 2.69L91.60 2.69Q93.02 1.27 93.44-0.42L93.44-0.42Q93.58-0.99 93.58-1.98Q93.58-2.97 93.73-3.54L93.73-3.54Q94.01-4.39 94.01-5.95L94.01-5.95Q94.01-7.36 93.87-7.93L93.87-7.93Q93.73-8.92 93.58-10.19Q93.44-11.47 93.02-13.17L93.02-13.17Q92.73-15.01 91.74-16.85Q90.75-18.69 90.04-19.75Q89.34-20.81 89.05-21.24L89.05-21.24L88.20-22.23Q85.51-24.49 82.12-25.34L82.12-25.34Q81.13-25.48 81.41-26.33L81.41-26.33Q82.40-29.02 84.10-29.87L84.10-29.87Q85.23-30.16 85.09-31.01L85.09-31.01Q84.95-31.29 84.95-31.86Q84.95-32.42 84.81-32.70L84.81-32.70Q84.81-32.70 83.11-34.83L83.11-34.83Q82.68-35.25 81.97-35.40Q81.27-35.54 80.84-35.25L80.84-35.25Q80.56-34.97 80.42-34.40Q80.28-33.84 80.13-33.55L80.13-33.55L79.71-32.42L78.72-31.29Q77.30-28.88 75.46-26.33L75.46-26.33Q75.46-26.05 74.90-25.77L74.90-25.77Q70.22-25.06 69.52-24.92L69.52-24.92Q63.85-23.79 61.16-23.08L61.16-23.08Q61.73-22.51 60.88-22.23L60.88-22.23Q60.60-22.23 60.31-21.66L60.31-21.66Q60.17-21.52 60.45-21.10L60.45-21.10Q61.73-20.81 62.72-19.11L62.72-19.11Q63.00-18.26 64.14-18.26L64.14-18.26Q64.99-18.26 65.83-18.69L65.83-18.69L67.82-19.68Q68.52-19.96 70.51-20.25L70.51-20.25L72.21-20.67Q72.06-20.25 71.92-19.75Q71.78-19.25 71.50-18.83L71.50-18.83Q70.51-16.71 68.81-14.23Q67.11-11.75 66.40-10.62L66.40-10.62L63.99-7.50L60.31-2.27Q58.19 0.14 55.92 2.12L55.92 2.12Q52.38 5.66 52.38 5.66L52.38 5.66Q49.27 7.93 47.71 8.92L47.71 8.92Q42.33 12.18 38.79 15.43L38.79 15.43Q37.52 16.28 37.52 16.28L37.52 16.28Q36.10 16.85 33.27 17.70L33.27 17.70L33.55 18.26Q32.99 18.69 31.71 18.97L31.71 18.97Q32.00 19.40 32.99 20.39L32.99 20.39Z" transform="translate(0 566.32) " fill="rgb(0, 0, 0)" stroke="rgb(0, 0, 0)" stroke-width="0.236" data-glyph-w="141.58" data-glyph-h="169.89600000000002" data-glyph-ascender="141.58" data-glyph-descender="-28.316000000000003"/></g></svg></g></g><g id="shape_FypSLNOYAr" transform="translate(235.11160577012788,275.8270106221553) rotate(90,62.68588770864937,61.86646433990885) scale(1,1)" filter="" style="opacity: 1;"><g><svg xmlns="http://www.w3.org/2000/svg" xmlns:xlink="http://www.w3.org/1999/xlink" version="1.1" width="346.61608497723773" height="123.73292867981772" viewBox="0 0 423 151" data-parent="shape_FypSLNOYAr"><g data-width="338.2785" transform="translate(21, 0)"><path d="M7.28-8.17L2.59-8.17L2.59-2.42L1.03-2.42L1.03-17.06L8.09-17.06Q9.93-17.06 11.23-15.76L11.23-15.76Q12.53-14.46 12.53-12.61L12.53-12.61Q12.53-10.78 11.23-9.47L11.23-9.47Q10.33-8.57 9.16-8.30L9.16-8.30L13.58-2.42L11.62-2.42L7.28-8.17ZM8.09-15.49L2.59-15.49L2.59-9.74L8.09-9.74Q9.28-9.74 10.12-10.58L10.12-10.58Q10.96-11.42 10.96-12.61L10.96-12.61Q10.96-13.81 10.12-14.65L10.12-14.65Q9.28-15.49 8.09-15.49L8.09-15.49Z" transform="translate(0 82) " fill="rgb(51, 51, 51)" stroke="rgb(51, 51, 51)" stroke-width="0.035" data-glyph-w="13.1455078125" data-glyph-h="21.8818359375" data-glyph-ascender="17.595703125" data-glyph-descender="-4.2861328125"/><path d="M6.78-2.15Q9.17-2.15 10.85-3.54L10.85-3.54Q12.53-4.91 12.53-6.86L12.53-6.86L12.53-17.06L10.96-17.06L10.96-6.86Q10.96-5.56 9.74-4.65L9.74-4.65Q8.51-3.72 6.78-3.72L6.78-3.72Q5.04-3.72 3.82-4.65L3.82-4.65Q2.59-5.56 2.59-6.86L2.59-6.86L2.59-17.06L1.03-17.06L1.03-6.86Q1.03-4.91 2.71-3.54L2.71-3.54Q4.40-2.15 6.78-2.15L6.78-2.15Z" transform="translate(13.1455078125 82) " fill="rgb(51, 51, 51)" stroke="rgb(51, 51, 51)" stroke-width="0.035" data-glyph-w="13.5556640625" data-glyph-h="21.8818359375" data-glyph-ascender="17.595703125" data-glyph-descender="-4.2861328125"/><path d="M7.28-8.17L2.59-8.17L2.59-2.42L1.03-2.42L1.03-17.06L8.09-17.06Q9.93-17.06 11.23-15.76L11.23-15.76Q12.53-14.46 12.53-12.61L12.53-12.61Q12.53-10.78 11.23-9.47L11.23-9.47Q10.33-8.57 9.16-8.30L9.16-8.30L13.58-2.42L11.62-2.42L7.28-8.17ZM8.09-15.49L2.59-15.49L2.59-9.74L8.09-9.74Q9.28-9.74 10.12-10.58L10.12-10.58Q10.96-11.42 10.96-12.61L10.96-12.61Q10.96-13.81 10.12-14.65L10.12-14.65Q9.28-15.49 8.09-15.49L8.09-15.49Z" transform="translate(26.701171875 82) " fill="rgb(51, 51, 51)" stroke="rgb(51, 51, 51)" stroke-width="0.035" data-glyph-w="13.1455078125" data-glyph-h="21.8818359375" data-glyph-ascender="17.595703125" data-glyph-descender="-4.2861328125"/><path d="M11.27-6.60L3.78-6.60L1.93-2.42L0.21-2.42L6.72-17.06L8.34-17.06L14.85-2.42L13.14-2.42L11.27-6.60ZM7.53-15.02L4.48-8.17L10.57-8.17L7.53-15.02Z" transform="translate(39.8466796875 82) " fill="rgb(51, 51, 51)" stroke="rgb(51, 51, 51)" stroke-width="0.035" data-glyph-w="15.052734375" data-glyph-h="21.8818359375" data-glyph-ascender="17.595703125" data-glyph-descender="-4.2861328125"/><path d="M2.59-17.06L2.59-3.99L9.92-3.99L9.92-2.42L1.03-2.42L1.03-17.06L2.59-17.06Z" transform="translate(54.8994140625 82) " fill="rgb(51, 51, 51)" stroke="rgb(51, 51, 51)" stroke-width="0.035" data-glyph-w="10.53076171875" data-glyph-h="21.8818359375" data-glyph-ascender="17.595703125" data-glyph-descender="-4.2861328125"/><path d="" transform="translate(65.43017578125 82) " fill="rgb(51, 51, 51)" stroke="rgb(51, 51, 51)" stroke-width="0.035" data-glyph-w="8.358" data-glyph-h="21" data-glyph-ascender="18.48" data-glyph-descender="-2.52"/><path d="M14.85-17.06L13.14-17.06L7.53-4.40L1.92-17.06L0.21-17.06L6.69-2.42L8.37-2.42L14.85-17.06Z" transform="translate(73.78817578125 82) " fill="rgb(51, 51, 51)" stroke="rgb(51, 51, 51)" stroke-width="0.035" data-glyph-w="15.052734375" data-glyph-h="21.8818359375" data-glyph-ascender="17.595703125" data-glyph-descender="-4.2861328125"/><path d="M8.20-17.33Q11.34-17.33 13.57-15.10L13.57-15.10Q15.78-12.88 15.78-9.74L15.78-9.74Q15.78-6.59 13.57-4.38L13.57-4.38Q11.34-2.15 8.20-2.15L8.20-2.15Q5.06-2.15 2.84-4.38L2.84-4.38Q0.62-6.59 0.62-9.74L0.62-9.74Q0.62-12.88 2.84-15.10L2.84-15.10Q5.06-17.33 8.20-17.33L8.20-17.33ZM8.20-15.75L8.20-15.75Q5.71-15.75 3.95-14.00L3.95-14.00Q2.18-12.23 2.18-9.74L2.18-9.74Q2.18-7.25 3.95-5.49L3.95-5.49Q5.71-3.72 8.20-3.72L8.20-3.72Q10.69-3.72 12.46-5.49L12.46-5.49Q14.21-7.25 14.21-9.74L14.21-9.74Q14.21-12.23 12.46-14.00L12.46-14.00Q10.69-15.75 8.20-15.75Z" transform="translate(88.84091015625 82) " fill="rgb(51, 51, 51)" stroke="rgb(51, 51, 51)" stroke-width="0.035" data-glyph-w="16.39599609375" data-glyph-h="21.8818359375" data-glyph-ascender="17.595703125" data-glyph-descender="-4.2861328125"/><path d="M2.59-17.06L2.59-3.99L9.92-3.99L9.92-2.42L1.03-2.42L1.03-17.06L2.59-17.06Z" transform="translate(105.23690625 82) " fill="rgb(51, 51, 51)" stroke="rgb(51, 51, 51)" stroke-width="0.035" data-glyph-w="10.53076171875" data-glyph-h="21.8818359375" data-glyph-ascender="17.595703125" data-glyph-descender="-4.2861328125"/><path d="M6.78-2.15Q9.17-2.15 10.85-3.54L10.85-3.54Q12.53-4.91 12.53-6.86L12.53-6.86L12.53-17.06L10.96-17.06L10.96-6.86Q10.96-5.56 9.74-4.65L9.74-4.65Q8.51-3.72 6.78-3.72L6.78-3.72Q5.04-3.72 3.82-4.65L3.82-4.65Q2.59-5.56 2.59-6.86L2.59-6.86L2.59-17.06L1.03-17.06L1.03-6.86Q1.03-4.91 2.71-3.54L2.71-3.54Q4.40-2.15 6.78-2.15L6.78-2.15Z" transform="translate(115.76766796875 82) " fill="rgb(51, 51, 51)" stroke="rgb(51, 51, 51)" stroke-width="0.035" data-glyph-w="13.5556640625" data-glyph-h="21.8818359375" data-glyph-ascender="17.595703125" data-glyph-descender="-4.2861328125"/><path d="M10.96-5.22L10.96-17.06L12.53-17.06L12.53-2.42L11.03-2.42L2.59-14.26L2.59-2.42L1.03-2.42L1.03-17.06L2.52-17.06L10.96-5.22Z" transform="translate(129.32333203125 82) " fill="rgb(51, 51, 51)" stroke="rgb(51, 51, 51)" stroke-width="0.035" data-glyph-w="13.5556640625" data-glyph-h="21.8818359375" data-glyph-ascender="17.595703125" data-glyph-descender="-4.2861328125"/><path d="M5.32-2.42L5.32-15.49L0.62-15.49L0.62-17.06L11.60-17.06L11.60-15.49L6.89-15.49L6.89-2.42L5.32-2.42Z" transform="translate(142.87899609375 82) " fill="rgb(51, 51, 51)" stroke="rgb(51, 51, 51)" stroke-width="0.035" data-glyph-w="12.21240234375" data-glyph-h="21.8818359375" data-glyph-ascender="17.595703125" data-glyph-descender="-4.2861328125"/><path d="M2.59-15.49L2.59-10.52L11.48-10.52L11.48-8.95L2.59-8.95L2.59-3.99L11.48-3.99L11.48-2.42L1.03-2.42L1.03-17.06L11.48-17.06L11.48-15.49L2.59-15.49Z" transform="translate(155.0913984375 82) " fill="rgb(51, 51, 51)" stroke="rgb(51, 51, 51)" stroke-width="0.035" data-glyph-w="12.099609375" data-glyph-h="21.8818359375" data-glyph-ascender="17.595703125" data-glyph-descender="-4.2861328125"/><path d="M2.59-15.49L2.59-10.52L11.48-10.52L11.48-8.95L2.59-8.95L2.59-3.99L11.48-3.99L11.48-2.42L1.03-2.42L1.03-17.06L11.48-17.06L11.48-15.49L2.59-15.49Z" transform="translate(167.1910078125 82) " fill="rgb(51, 51, 51)" stroke="rgb(51, 51, 51)" stroke-width="0.035" data-glyph-w="12.099609375" data-glyph-h="21.8818359375" data-glyph-ascender="17.595703125" data-glyph-descender="-4.2861328125"/><path d="M7.28-8.17L2.59-8.17L2.59-2.42L1.03-2.42L1.03-17.06L8.09-17.06Q9.93-17.06 11.23-15.76L11.23-15.76Q12.53-14.46 12.53-12.61L12.53-12.61Q12.53-10.78 11.23-9.47L11.23-9.47Q10.33-8.57 9.16-8.30L9.16-8.30L13.58-2.42L11.62-2.42L7.28-8.17ZM8.09-15.49L2.59-15.49L2.59-9.74L8.09-9.74Q9.28-9.74 10.12-10.58L10.12-10.58Q10.96-11.42 10.96-12.61L10.96-12.61Q10.96-13.81 10.12-14.65L10.12-14.65Q9.28-15.49 8.09-15.49L8.09-15.49Z" transform="translate(179.2906171875 82) " fill="rgb(51, 51, 51)" stroke="rgb(51, 51, 51)" stroke-width="0.035" data-glyph-w="13.1455078125" data-glyph-h="21.8818359375" data-glyph-ascender="17.595703125" data-glyph-descender="-4.2861328125"/><path d="" transform="translate(192.436125 82) " fill="rgb(51, 51, 51)" stroke="rgb(51, 51, 51)" stroke-width="0.035" data-glyph-w="8.358" data-glyph-h="21" data-glyph-ascender="18.48" data-glyph-descender="-2.52"/><path d="M7.28-8.17L2.59-8.17L2.59-2.42L1.03-2.42L1.03-17.06L8.09-17.06Q9.93-17.06 11.23-15.76L11.23-15.76Q12.53-14.46 12.53-12.61L12.53-12.61Q12.53-10.78 11.23-9.47L11.23-9.47Q10.33-8.57 9.16-8.30L9.16-8.30L13.58-2.42L11.62-2.42L7.28-8.17ZM8.09-15.49L2.59-15.49L2.59-9.74L8.09-9.74Q9.28-9.74 10.12-10.58L10.12-10.58Q10.96-11.42 10.96-12.61L10.96-12.61Q10.96-13.81 10.12-14.65L10.12-14.65Q9.28-15.49 8.09-15.49L8.09-15.49Z" transform="translate(200.794125 82) " fill="rgb(51, 51, 51)" stroke="rgb(51, 51, 51)" stroke-width="0.035" data-glyph-w="13.1455078125" data-glyph-h="21.8818359375" data-glyph-ascender="17.595703125" data-glyph-descender="-4.2861328125"/><path d="M2.59-15.49L2.59-10.52L11.48-10.52L11.48-8.95L2.59-8.95L2.59-3.99L11.48-3.99L11.48-2.42L1.03-2.42L1.03-17.06L11.48-17.06L11.48-15.49L2.59-15.49Z" transform="translate(213.9396328125 82) " fill="rgb(51, 51, 51)" stroke="rgb(51, 51, 51)" stroke-width="0.035" data-glyph-w="12.099609375" data-glyph-h="21.8818359375" data-glyph-ascender="17.595703125" data-glyph-descender="-4.2861328125"/><path d="M8.20-2.15Q11.73-2.15 14.01-4.86L14.01-4.86L12.81-5.88Q11.00-3.72 8.20-3.72L8.20-3.72Q5.71-3.72 3.95-5.49L3.95-5.49Q2.18-7.25 2.18-9.74L2.18-9.74Q2.18-12.23 3.95-14.00L3.95-14.00Q5.71-15.75 8.20-15.75L8.20-15.75Q11.00-15.75 12.81-13.61L12.81-13.61L14.01-14.61Q11.73-17.33 8.20-17.33L8.20-17.33Q5.06-17.33 2.84-15.10L2.84-15.10Q0.62-12.88 0.62-9.74L0.62-9.74Q0.62-6.59 2.84-4.38L2.84-4.38Q5.06-2.15 8.20-2.15L8.20-2.15Z" transform="translate(226.0392421875 82) " fill="rgb(51, 51, 51)" stroke="rgb(51, 51, 51)" stroke-width="0.035" data-glyph-w="14.6220703125" data-glyph-h="21.8818359375" data-glyph-ascender="17.595703125" data-glyph-descender="-4.2861328125"/><path d="M7.28-8.17L2.59-8.17L2.59-2.42L1.03-2.42L1.03-17.06L8.09-17.06Q9.93-17.06 11.23-15.76L11.23-15.76Q12.53-14.46 12.53-12.61L12.53-12.61Q12.53-10.78 11.23-9.47L11.23-9.47Q10.33-8.57 9.16-8.30L9.16-8.30L13.58-2.42L11.62-2.42L7.28-8.17ZM8.09-15.49L2.59-15.49L2.59-9.74L8.09-9.74Q9.28-9.74 10.12-10.58L10.12-10.58Q10.96-11.42 10.96-12.61L10.96-12.61Q10.96-13.81 10.12-14.65L10.12-14.65Q9.28-15.49 8.09-15.49L8.09-15.49Z" transform="translate(240.6613125 82) " fill="rgb(51, 51, 51)" stroke="rgb(51, 51, 51)" stroke-width="0.035" data-glyph-w="13.1455078125" data-glyph-h="21.8818359375" data-glyph-ascender="17.595703125" data-glyph-descender="-4.2861328125"/><path d="M6.78-2.15Q9.17-2.15 10.85-3.54L10.85-3.54Q12.53-4.91 12.53-6.86L12.53-6.86L12.53-17.06L10.96-17.06L10.96-6.86Q10.96-5.56 9.74-4.65L9.74-4.65Q8.51-3.72 6.78-3.72L6.78-3.72Q5.04-3.72 3.82-4.65L3.82-4.65Q2.59-5.56 2.59-6.86L2.59-6.86L2.59-17.06L1.03-17.06L1.03-6.86Q1.03-4.91 2.71-3.54L2.71-3.54Q4.40-2.15 6.78-2.15L6.78-2.15Z" transform="translate(253.8068203125 82) " fill="rgb(51, 51, 51)" stroke="rgb(51, 51, 51)" stroke-width="0.035" data-glyph-w="13.5556640625" data-glyph-h="21.8818359375" data-glyph-ascender="17.595703125" data-glyph-descender="-4.2861328125"/><path d="M2.59-2.42L2.59-17.06L1.03-17.06L1.03-2.42L2.59-2.42Z" transform="translate(267.362484375 82) " fill="rgb(51, 51, 51)" stroke="rgb(51, 51, 51)" stroke-width="0.035" data-glyph-w="3.61962890625" data-glyph-h="21.8818359375" data-glyph-ascender="17.595703125" data-glyph-descender="-4.2861328125"/><path d="M5.32-2.42L5.32-15.49L0.62-15.49L0.62-17.06L11.60-17.06L11.60-15.49L6.89-15.49L6.89-2.42L5.32-2.42Z" transform="translate(270.98211328125 82) " fill="rgb(51, 51, 51)" stroke="rgb(51, 51, 51)" stroke-width="0.035" data-glyph-w="12.21240234375" data-glyph-h="21.8818359375" data-glyph-ascender="17.595703125" data-glyph-descender="-4.2861328125"/><path d="M7.94-6.86L2.59-14.36L2.59-2.42L1.03-2.42L1.03-17.06L2.59-17.06L8.60-8.63L14.62-17.06L16.19-17.06L16.19-2.42L14.62-2.42L14.62-14.36L9.27-6.86L7.94-6.86Z" transform="translate(283.194515625 82) " fill="rgb(51, 51, 51)" stroke="rgb(51, 51, 51)" stroke-width="0.035" data-glyph-w="17.21630859375" data-glyph-h="21.8818359375" data-glyph-ascender="17.595703125" data-glyph-descender="-4.2861328125"/><path d="M2.59-15.49L2.59-10.52L11.48-10.52L11.48-8.95L2.59-8.95L2.59-3.99L11.48-3.99L11.48-2.42L1.03-2.42L1.03-17.06L11.48-17.06L11.48-15.49L2.59-15.49Z" transform="translate(300.41082421875 82) " fill="rgb(51, 51, 51)" stroke="rgb(51, 51, 51)" stroke-width="0.035" data-glyph-w="12.099609375" data-glyph-h="21.8818359375" data-glyph-ascender="17.595703125" data-glyph-descender="-4.2861328125"/><path d="M10.96-5.22L10.96-17.06L12.53-17.06L12.53-2.42L11.03-2.42L2.59-14.26L2.59-2.42L1.03-2.42L1.03-17.06L2.52-17.06L10.96-5.22Z" transform="translate(312.51043359375 82) " fill="rgb(51, 51, 51)" stroke="rgb(51, 51, 51)" stroke-width="0.035" data-glyph-w="13.5556640625" data-glyph-h="21.8818359375" data-glyph-ascender="17.595703125" data-glyph-descender="-4.2861328125"/><path d="M5.32-2.42L5.32-15.49L0.62-15.49L0.62-17.06L11.60-17.06L11.60-15.49L6.89-15.49L6.89-2.42L5.32-2.42Z" transform="translate(326.06609765625 82) " fill="rgb(51, 51, 51)" stroke="rgb(51, 51, 51)" stroke-width="0.035" data-glyph-w="12.21240234375" data-glyph-h="21.8818359375" data-glyph-ascender="17.595703125" data-glyph-descender="-4.2861328125"/></g></svg></g></g></svg>
